solid test1
facet normal -0.0 -1.0 -0.0
outer loop
vertex 99.4 18.0 2.0
vertex 93.4 18.0 0.0
vertex 99.4 18.0 0.0
endloop
endfacet
facet normal -0.0 -1.0 -0.0
outer loop
vertex 93.4 18.0 0.0
vertex 99.4 18.0 2.0
vertex 93.4 18.0 2.0
endloop
endfacet
facet normal -1.0 0.0 0.0
outer loop
vertex 99.4 18.0 2.0
vertex 99.4 6.0 0.0
vertex 99.4 6.0 2.0
endloop
endfacet
facet normal -1.0 0.0 0.0
outer loop
vertex 99.4 6.0 0.0
vertex 99.4 18.0 2.0
vertex 99.4 18.0 0.0
endloop
endfacet
facet normal -0.0 1.0 0.0
outer loop
vertex 93.4 6.0 2.0
vertex 99.4 6.0 0.0
vertex 93.4 6.0 0.0
endloop
endfacet
facet normal -0.0 1.0 0.0
outer loop
vertex 99.4 6.0 0.0
vertex 93.4 6.0 2.0
vertex 99.4 6.0 2.0
endloop
endfacet
facet normal 1.0 0.0 0.0
outer loop
vertex 93.4 18.0 0.0
vertex 93.4 6.0 2.0
vertex 93.4 6.0 0.0
endloop
endfacet
facet normal 1.0 0.0 0.0
outer loop
vertex 93.4 6.0 2.0
vertex 93.4 18.0 0.0
vertex 93.4 18.0 2.0
endloop
endfacet
facet normal -1.0 0.0 0.0
outer loop
vertex 99.4 4.0 2.0
vertex 99.4 0.0 0.0
vertex 99.4 0.0 2.0
endloop
endfacet
facet normal -1.0 0.0 0.0
outer loop
vertex 99.4 0.0 0.0
vertex 99.4 4.0 2.0
vertex 99.4 4.0 0.0
endloop
endfacet
facet normal 0.0 0.0 -1.0
outer loop
vertex 91.4 20.0 0.0
vertex 93.4 18.0 0.0
vertex 91.4 0.0 0.0
endloop
endfacet
facet normal 0.0 0.0 -1.0
outer loop
vertex 93.4 18.0 0.0
vertex 91.4 20.0 0.0
vertex 101.4 20.0 0.0
endloop
endfacet
facet normal 0.0 0.0 -1.0
outer loop
vertex 93.4 18.0 0.0
vertex 101.4 20.0 0.0
vertex 99.4 18.0 0.0
endloop
endfacet
facet normal 0.0 0.0 -1.0
outer loop
vertex 99.4 18.0 0.0
vertex 101.4 20.0 0.0
vertex 99.4 6.0 0.0
endloop
endfacet
facet normal 0.0 0.0 -1.0
outer loop
vertex 99.4 6.0 0.0
vertex 101.4 20.0 0.0
vertex 99.4 4.0 0.0
endloop
endfacet
facet normal 0.0 0.0 -1.0
outer loop
vertex 99.4 4.0 0.0
vertex 101.4 20.0 0.0
vertex 99.4 0.0 0.0
endloop
endfacet
facet normal 0.0 0.0 -1.0
outer loop
vertex 99.4 0.0 0.0
vertex 101.4 20.0 0.0
vertex 101.4 0.0 0.0
endloop
endfacet
facet normal 0.0 0.0 -1.0
outer loop
vertex 99.4 6.0 0.0
vertex 93.4 4.0 0.0
vertex 93.4 6.0 0.0
endloop
endfacet
facet normal 0.0 0.0 -1.0
outer loop
vertex 93.4 4.0 0.0
vertex 99.4 6.0 0.0
vertex 99.4 4.0 0.0
endloop
endfacet
facet normal 0.0 0.0 -1.0
outer loop
vertex 93.4 18.0 0.0
vertex 93.4 0.0 0.0
vertex 91.4 0.0 0.0
endloop
endfacet
facet normal 0.0 0.0 -1.0
outer loop
vertex 93.4 0.0 0.0
vertex 93.4 18.0 0.0
vertex 93.4 6.0 0.0
endloop
endfacet
facet normal 0.0 0.0 -1.0
outer loop
vertex 93.4 0.0 0.0
vertex 93.4 6.0 0.0
vertex 93.4 4.0 0.0
endloop
endfacet
facet normal -0.0 -1.0 -0.0
outer loop
vertex 101.4 0.0 2.0
vertex 99.4 0.0 0.0
vertex 101.4 0.0 0.0
endloop
endfacet
facet normal -0.0 -1.0 -0.0
outer loop
vertex 99.4 0.0 0.0
vertex 101.4 0.0 2.0
vertex 99.4 0.0 2.0
endloop
endfacet
facet normal 1.0 0.0 0.0
outer loop
vertex 101.4 20.0 0.0
vertex 101.4 0.0 2.0
vertex 101.4 0.0 0.0
endloop
endfacet
facet normal 1.0 0.0 0.0
outer loop
vertex 101.4 0.0 2.0
vertex 101.4 20.0 0.0
vertex 101.4 20.0 2.0
endloop
endfacet
facet normal -0.0 1.0 0.0
outer loop
vertex 91.4 20.0 2.0
vertex 101.4 20.0 0.0
vertex 91.4 20.0 0.0
endloop
endfacet
facet normal -0.0 1.0 0.0
outer loop
vertex 101.4 20.0 0.0
vertex 91.4 20.0 2.0
vertex 101.4 20.0 2.0
endloop
endfacet
facet normal -1.0 0.0 0.0
outer loop
vertex 91.4 20.0 2.0
vertex 91.4 0.0 0.0
vertex 91.4 0.0 2.0
endloop
endfacet
facet normal -1.0 0.0 0.0
outer loop
vertex 91.4 0.0 0.0
vertex 91.4 20.0 2.0
vertex 91.4 20.0 0.0
endloop
endfacet
facet normal -0.0 -1.0 -0.0
outer loop
vertex 93.4 0.0 2.0
vertex 91.4 0.0 0.0
vertex 93.4 0.0 0.0
endloop
endfacet
facet normal -0.0 -1.0 -0.0
outer loop
vertex 91.4 0.0 0.0
vertex 93.4 0.0 2.0
vertex 91.4 0.0 2.0
endloop
endfacet
facet normal 1.0 0.0 0.0
outer loop
vertex 93.4 4.0 0.0
vertex 93.4 0.0 2.0
vertex 93.4 0.0 0.0
endloop
endfacet
facet normal 1.0 0.0 0.0
outer loop
vertex 93.4 0.0 2.0
vertex 93.4 4.0 0.0
vertex 93.4 4.0 2.0
endloop
endfacet
facet normal -0.0 -1.0 -0.0
outer loop
vertex 99.4 4.0 2.0
vertex 93.4 4.0 0.0
vertex 99.4 4.0 0.0
endloop
endfacet
facet normal -0.0 -1.0 -0.0
outer loop
vertex 93.4 4.0 0.0
vertex 99.4 4.0 2.0
vertex 93.4 4.0 2.0
endloop
endfacet
facet normal 0.0 0.0 1.0
outer loop
vertex 101.4 0.0 2.0
vertex 99.4 4.0 2.0
vertex 99.4 0.0 2.0
endloop
endfacet
facet normal 0.0 0.0 1.0
outer loop
vertex 99.4 4.0 2.0
vertex 101.4 0.0 2.0
vertex 99.4 6.0 2.0
endloop
endfacet
facet normal 0.0 0.0 1.0
outer loop
vertex 99.4 6.0 2.0
vertex 101.4 0.0 2.0
vertex 99.4 18.0 2.0
endloop
endfacet
facet normal 0.0 0.0 1.0
outer loop
vertex 93.4 0.0 2.0
vertex 91.4 20.0 2.0
vertex 91.4 0.0 2.0
endloop
endfacet
facet normal 0.0 0.0 1.0
outer loop
vertex 91.4 20.0 2.0
vertex 93.4 0.0 2.0
vertex 93.4 18.0 2.0
endloop
endfacet
facet normal 0.0 0.0 1.0
outer loop
vertex 91.4 20.0 2.0
vertex 93.4 18.0 2.0
vertex 101.4 20.0 2.0
endloop
endfacet
facet normal 0.0 0.0 1.0
outer loop
vertex 93.4 18.0 2.0
vertex 93.4 0.0 2.0
vertex 93.4 4.0 2.0
endloop
endfacet
facet normal 0.0 0.0 1.0
outer loop
vertex 93.4 18.0 2.0
vertex 93.4 4.0 2.0
vertex 93.4 6.0 2.0
endloop
endfacet
facet normal 0.0 0.0 1.0
outer loop
vertex 101.4 20.0 2.0
vertex 93.4 18.0 2.0
vertex 99.4 18.0 2.0
endloop
endfacet
facet normal 0.0 0.0 1.0
outer loop
vertex 101.4 20.0 2.0
vertex 99.4 18.0 2.0
vertex 101.4 0.0 2.0
endloop
endfacet
facet normal 0.0 0.0 1.0
outer loop
vertex 99.4 4.0 2.0
vertex 93.4 6.0 2.0
vertex 93.4 4.0 2.0
endloop
endfacet
facet normal 0.0 0.0 1.0
outer loop
vertex 93.4 6.0 2.0
vertex 99.4 4.0 2.0
vertex 99.4 6.0 2.0
endloop
endfacet
endsolid test1
