solid test1
facet normal 0.0 0.0 -1.0
outer loop
vertex 121.4 20.0 0.0
vertex 123.4 18.0 0.0
vertex 121.4 0.0 0.0
endloop
endfacet
facet normal 0.0 0.0 -1.0
outer loop
vertex 123.4 18.0 0.0
vertex 121.4 20.0 0.0
vertex 131.4 20.0 0.0
endloop
endfacet
facet normal 0.0 0.0 -1.0
outer loop
vertex 123.4 18.0 0.0
vertex 131.4 20.0 0.0
vertex 129.4 18.0 0.0
endloop
endfacet
facet normal 0.0 0.0 -1.0
outer loop
vertex 129.4 18.0 0.0
vertex 131.4 20.0 0.0
vertex 129.4 10.0 0.0
endloop
endfacet
facet normal 0.0 0.0 -1.0
outer loop
vertex 129.4 10.0 0.0
vertex 131.4 20.0 0.0
vertex 129.4 8.0 0.0
endloop
endfacet
facet normal 0.0 0.0 -1.0
outer loop
vertex 129.4 8.0 0.0
vertex 131.4 20.0 0.0
vertex 129.4 2.0 0.0
endloop
endfacet
facet normal 0.0 0.0 -1.0
outer loop
vertex 121.4 0.0 0.0
vertex 123.4 2.0 0.0
vertex 131.4 0.0 0.0
endloop
endfacet
facet normal 0.0 0.0 -1.0
outer loop
vertex 123.4 2.0 0.0
vertex 121.4 0.0 0.0
vertex 123.4 18.0 0.0
endloop
endfacet
facet normal 0.0 0.0 -1.0
outer loop
vertex 123.4 2.0 0.0
vertex 123.4 18.0 0.0
vertex 123.4 10.0 0.0
endloop
endfacet
facet normal 0.0 0.0 -1.0
outer loop
vertex 123.4 2.0 0.0
vertex 123.4 10.0 0.0
vertex 123.4 8.0 0.0
endloop
endfacet
facet normal 0.0 0.0 -1.0
outer loop
vertex 131.4 0.0 0.0
vertex 123.4 2.0 0.0
vertex 129.4 2.0 0.0
endloop
endfacet
facet normal 0.0 0.0 -1.0
outer loop
vertex 131.4 0.0 0.0
vertex 129.4 2.0 0.0
vertex 131.4 20.0 0.0
endloop
endfacet
facet normal 0.0 0.0 -1.0
outer loop
vertex 129.4 10.0 0.0
vertex 123.4 8.0 0.0
vertex 123.4 10.0 0.0
endloop
endfacet
facet normal 0.0 0.0 -1.0
outer loop
vertex 123.4 8.0 0.0
vertex 129.4 10.0 0.0
vertex 129.4 8.0 0.0
endloop
endfacet
facet normal -1.0 0.0 0.0
outer loop
vertex 129.4 18.0 2.0
vertex 129.4 10.0 0.0
vertex 129.4 10.0 2.0
endloop
endfacet
facet normal -1.0 0.0 0.0
outer loop
vertex 129.4 10.0 0.0
vertex 129.4 18.0 2.0
vertex 129.4 18.0 0.0
endloop
endfacet
facet normal -0.0 1.0 0.0
outer loop
vertex 123.4 10.0 2.0
vertex 129.4 10.0 0.0
vertex 123.4 10.0 0.0
endloop
endfacet
facet normal -0.0 1.0 0.0
outer loop
vertex 129.4 10.0 0.0
vertex 123.4 10.0 2.0
vertex 129.4 10.0 2.0
endloop
endfacet
facet normal 1.0 0.0 0.0
outer loop
vertex 123.4 18.0 0.0
vertex 123.4 10.0 2.0
vertex 123.4 10.0 0.0
endloop
endfacet
facet normal 1.0 0.0 0.0
outer loop
vertex 123.4 10.0 2.0
vertex 123.4 18.0 0.0
vertex 123.4 18.0 2.0
endloop
endfacet
facet normal -0.0 -1.0 -0.0
outer loop
vertex 129.4 18.0 2.0
vertex 123.4 18.0 0.0
vertex 129.4 18.0 0.0
endloop
endfacet
facet normal -0.0 -1.0 -0.0
outer loop
vertex 123.4 18.0 0.0
vertex 129.4 18.0 2.0
vertex 123.4 18.0 2.0
endloop
endfacet
facet normal -0.0 1.0 0.0
outer loop
vertex 123.4 2.0 2.0
vertex 129.4 2.0 0.0
vertex 123.4 2.0 0.0
endloop
endfacet
facet normal -0.0 1.0 0.0
outer loop
vertex 129.4 2.0 0.0
vertex 123.4 2.0 2.0
vertex 129.4 2.0 2.0
endloop
endfacet
facet normal 1.0 0.0 0.0
outer loop
vertex 123.4 8.0 0.0
vertex 123.4 2.0 2.0
vertex 123.4 2.0 0.0
endloop
endfacet
facet normal 1.0 0.0 0.0
outer loop
vertex 123.4 2.0 2.0
vertex 123.4 8.0 0.0
vertex 123.4 8.0 2.0
endloop
endfacet
facet normal -0.0 -1.0 -0.0
outer loop
vertex 129.4 8.0 2.0
vertex 123.4 8.0 0.0
vertex 129.4 8.0 0.0
endloop
endfacet
facet normal -0.0 -1.0 -0.0
outer loop
vertex 123.4 8.0 0.0
vertex 129.4 8.0 2.0
vertex 123.4 8.0 2.0
endloop
endfacet
facet normal -1.0 0.0 0.0
outer loop
vertex 129.4 8.0 2.0
vertex 129.4 2.0 0.0
vertex 129.4 2.0 2.0
endloop
endfacet
facet normal -1.0 0.0 0.0
outer loop
vertex 129.4 2.0 0.0
vertex 129.4 8.0 2.0
vertex 129.4 8.0 0.0
endloop
endfacet
facet normal -1.0 0.0 0.0
outer loop
vertex 121.4 20.0 2.0
vertex 121.4 0.0 0.0
vertex 121.4 0.0 2.0
endloop
endfacet
facet normal -1.0 0.0 0.0
outer loop
vertex 121.4 0.0 0.0
vertex 121.4 20.0 2.0
vertex 121.4 20.0 0.0
endloop
endfacet
facet normal -0.0 -1.0 -0.0
outer loop
vertex 131.4 0.0 2.0
vertex 121.4 0.0 0.0
vertex 131.4 0.0 0.0
endloop
endfacet
facet normal -0.0 -1.0 -0.0
outer loop
vertex 121.4 0.0 0.0
vertex 131.4 0.0 2.0
vertex 121.4 0.0 2.0
endloop
endfacet
facet normal 1.0 0.0 0.0
outer loop
vertex 131.4 20.0 0.0
vertex 131.4 0.0 2.0
vertex 131.4 0.0 0.0
endloop
endfacet
facet normal 1.0 0.0 0.0
outer loop
vertex 131.4 0.0 2.0
vertex 131.4 20.0 0.0
vertex 131.4 20.0 2.0
endloop
endfacet
facet normal -0.0 1.0 0.0
outer loop
vertex 121.4 20.0 2.0
vertex 131.4 20.0 0.0
vertex 121.4 20.0 0.0
endloop
endfacet
facet normal -0.0 1.0 0.0
outer loop
vertex 131.4 20.0 0.0
vertex 121.4 20.0 2.0
vertex 131.4 20.0 2.0
endloop
endfacet
facet normal -0.0 -0.0 1.0
outer loop
vertex 121.4 0.0 2.0
vertex 123.4 2.0 2.0
vertex 121.4 20.0 2.0
endloop
endfacet
facet normal -0.0 -0.0 1.0
outer loop
vertex 123.4 2.0 2.0
vertex 121.4 0.0 2.0
vertex 131.4 0.0 2.0
endloop
endfacet
facet normal -0.0 -0.0 1.0
outer loop
vertex 123.4 2.0 2.0
vertex 131.4 0.0 2.0
vertex 129.4 2.0 2.0
endloop
endfacet
facet normal -0.0 -0.0 1.0
outer loop
vertex 129.4 2.0 2.0
vertex 131.4 0.0 2.0
vertex 129.4 8.0 2.0
endloop
endfacet
facet normal -0.0 -0.0 1.0
outer loop
vertex 129.4 8.0 2.0
vertex 131.4 0.0 2.0
vertex 129.4 10.0 2.0
endloop
endfacet
facet normal -0.0 -0.0 1.0
outer loop
vertex 129.4 10.0 2.0
vertex 131.4 0.0 2.0
vertex 129.4 18.0 2.0
endloop
endfacet
facet normal -0.0 -0.0 1.0
outer loop
vertex 121.4 20.0 2.0
vertex 123.4 18.0 2.0
vertex 131.4 20.0 2.0
endloop
endfacet
facet normal -0.0 -0.0 1.0
outer loop
vertex 123.4 18.0 2.0
vertex 121.4 20.0 2.0
vertex 123.4 2.0 2.0
endloop
endfacet
facet normal -0.0 -0.0 1.0
outer loop
vertex 123.4 18.0 2.0
vertex 123.4 2.0 2.0
vertex 123.4 8.0 2.0
endloop
endfacet
facet normal -0.0 -0.0 1.0
outer loop
vertex 123.4 18.0 2.0
vertex 123.4 8.0 2.0
vertex 123.4 10.0 2.0
endloop
endfacet
facet normal -0.0 -0.0 1.0
outer loop
vertex 131.4 20.0 2.0
vertex 123.4 18.0 2.0
vertex 129.4 18.0 2.0
endloop
endfacet
facet normal -0.0 -0.0 1.0
outer loop
vertex 131.4 20.0 2.0
vertex 129.4 18.0 2.0
vertex 131.4 0.0 2.0
endloop
endfacet
facet normal -0.0 -0.0 1.0
outer loop
vertex 129.4 8.0 2.0
vertex 123.4 10.0 2.0
vertex 123.4 8.0 2.0
endloop
endfacet
facet normal -0.0 -0.0 1.0
outer loop
vertex 123.4 10.0 2.0
vertex 129.4 8.0 2.0
vertex 129.4 10.0 2.0
endloop
endfacet
endsolid test1
