solid test1
facet normal 0.0 0.0 -1.0
outer loop
vertex 27.014308183285 8.60429700444797 0.0
vertex 27.014308183285 5.49846846321772 0.0
vertex 26.8098631410194 7.05138273383284 0.0
endloop
endfacet
facet normal 0.0 0.0 -1.0
outer loop
vertex 27.014308183285 5.49846846321772 0.0
vertex 27.014308183285 8.60429700444797 0.0
vertex 27.6137107183128 10.0513827338328 0.0
endloop
endfacet
facet normal 0.0 0.0 -1.0
outer loop
vertex 27.014308183285 5.49846846321772 0.0
vertex 27.6137107183128 10.0513827338328 0.0
vertex 27.6137107183128 4.05138273383285 0.0
endloop
endfacet
facet normal 0.0 0.0 -1.0
outer loop
vertex 27.6137107183128 4.05138273383285 0.0
vertex 27.6137107183128 10.0513827338328 0.0
vertex 28.5672224539002 2.80874204671356 0.0
endloop
endfacet
facet normal 0.0 0.0 -1.0
outer loop
vertex 28.5672224539002 2.80874204671356 0.0
vertex 27.6137107183128 10.0513827338328 0.0
vertex 28.5672224539002 11.2940234209521 0.0
endloop
endfacet
facet normal 0.0 0.0 -1.0
outer loop
vertex 28.5672224539002 2.80874204671356 0.0
vertex 28.5672224539002 11.2940234209521 0.0
vertex 28.8098631410194 7.05138273383284 7.04991620636974e-016
endloop
endfacet
facet normal 0.0 0.0 -1.0
outer loop
vertex 28.8098631410194 7.05138273383284 7.04991620636974e-016
vertex 28.5672224539002 11.2940234209521 0.0
vertex 28.9461598358632 8.08665891424292 7.04991620636974e-016
endloop
endfacet
facet normal 0.0 0.0 -1.0
outer loop
vertex 28.9461598358632 8.08665891424292 7.04991620636974e-016
vertex 28.5672224539002 11.2940234209521 0.0
vertex 29.8098631410194 12.2475351565395 0.0
endloop
endfacet
facet normal 0.0 0.0 -1.0
outer loop
vertex 28.9461598358632 8.08665891424292 7.04991620636974e-016
vertex 29.8098631410194 12.2475351565395 0.0
vertex 29.3457615258817 9.05138273383284 7.04991620636974e-016
endloop
endfacet
facet normal 0.0 0.0 -1.0
outer loop
vertex 29.3457615258817 9.05138273383284 7.04991620636974e-016
vertex 29.8098631410194 12.2475351565395 0.0
vertex 29.9814360162733 9.87980985857903 7.04991620636974e-016
endloop
endfacet
facet normal 0.0 0.0 -1.0
outer loop
vertex 29.9814360162733 9.87980985857903 7.04991620636974e-016
vertex 29.8098631410194 12.2475351565395 0.0
vertex 31.2569488704043 12.8469376915673 0.0
endloop
endfacet
facet normal 0.0 0.0 -1.0
outer loop
vertex 29.9814360162733 9.87980985857903 7.04991620636974e-016
vertex 31.2569488704043 12.8469376915673 0.0
vertex 30.8098631410194 10.5154843489706 7.04991620636974e-016
endloop
endfacet
facet normal 0.0 0.0 -1.0
outer loop
vertex 30.8098631410194 10.5154843489706 7.04991620636974e-016
vertex 31.2569488704043 12.8469376915673 0.0
vertex 31.7745869606094 10.9150860389891 7.04991620636974e-016
endloop
endfacet
facet normal 0.0 0.0 -1.0
outer loop
vertex 31.7745869606094 10.9150860389891 7.04991620636974e-016
vertex 31.2569488704043 12.8469376915673 0.0
vertex 32.8098631410194 13.0513827338328 0.0
endloop
endfacet
facet normal 0.0 0.0 -1.0
outer loop
vertex 31.7745869606094 10.9150860389891 7.04991620636974e-016
vertex 32.8098631410194 13.0513827338328 0.0
vertex 32.8098631410194 11.0513827338328 7.04991620636974e-016
endloop
endfacet
facet normal 0.0 0.0 -1.0
outer loop
vertex 32.8098631410194 11.0513827338328 7.04991620636974e-016
vertex 32.8098631410194 13.0513827338328 0.0
vertex 34.3627774116346 12.8469376915673 0.0
endloop
endfacet
facet normal 0.0 0.0 -1.0
outer loop
vertex 32.8098631410194 11.0513827338328 7.04991620636974e-016
vertex 34.3627774116346 12.8469376915673 0.0
vertex 33.8451393214295 10.9150860389891 7.04991620636974e-016
endloop
endfacet
facet normal 0.0 0.0 -1.0
outer loop
vertex 33.8451393214295 10.9150860389891 7.04991620636974e-016
vertex 34.3627774116346 12.8469376915673 0.0
vertex 34.8098631410194 10.5154843489706 7.04991620636974e-016
endloop
endfacet
facet normal 0.0 0.0 -1.0
outer loop
vertex 34.8098631410194 10.5154843489706 7.04991620636974e-016
vertex 34.3627774116346 12.8469376915673 0.0
vertex 35.8098631410194 12.2475351565395 0.0
endloop
endfacet
facet normal 0.0 0.0 -1.0
outer loop
vertex 34.8098631410194 10.5154843489706 7.04991620636974e-016
vertex 35.8098631410194 12.2475351565395 0.0
vertex 35.6382902657656 9.87980985857903 7.04991620636974e-016
endloop
endfacet
facet normal 0.0 0.0 -1.0
outer loop
vertex 35.6382902657656 9.87980985857903 7.04991620636974e-016
vertex 35.8098631410194 12.2475351565395 0.0
vertex 36.2739647561572 9.05138273383284 7.04991620636974e-016
endloop
endfacet
facet normal 0.0 0.0 -1.0
outer loop
vertex 36.2739647561572 9.05138273383284 7.04991620636974e-016
vertex 35.8098631410194 12.2475351565395 0.0
vertex 37.0525038281387 11.2940234209521 0.0
endloop
endfacet
facet normal 0.0 0.0 -1.0
outer loop
vertex 36.2739647561572 9.05138273383284 7.04991620636974e-016
vertex 37.0525038281387 11.2940234209521 0.0
vertex 36.6735664461757 8.08665891424292 7.04991620636974e-016
endloop
endfacet
facet normal 0.0 0.0 -1.0
outer loop
vertex 36.6735664461757 8.08665891424292 7.04991620636974e-016
vertex 37.0525038281387 11.2940234209521 0.0
vertex 36.8098631410194 7.05138273383284 7.04991620636974e-016
endloop
endfacet
facet normal 0.0 0.0 -1.0
outer loop
vertex 28.5672224539002 2.80874204671356 0.0
vertex 28.9461598358632 6.01610655342276 7.04991620636974e-016
vertex 29.8098631410194 1.85523031112621 0.0
endloop
endfacet
facet normal 0.0 0.0 -1.0
outer loop
vertex 28.9461598358632 6.01610655342276 7.04991620636974e-016
vertex 28.5672224539002 2.80874204671356 0.0
vertex 28.8098631410194 7.05138273383284 7.04991620636974e-016
endloop
endfacet
facet normal 0.0 0.0 -1.0
outer loop
vertex 29.8098631410194 1.85523031112621 0.0
vertex 28.9461598358632 6.01610655342276 7.04991620636974e-016
vertex 29.3457615258817 5.05138273383284 7.04991620636974e-016
endloop
endfacet
facet normal 0.0 0.0 -1.0
outer loop
vertex 29.8098631410194 1.85523031112621 0.0
vertex 29.3457615258817 5.05138273383284 7.04991620636974e-016
vertex 29.9814360162733 4.22295560908665 7.04991620636974e-016
endloop
endfacet
facet normal 0.0 0.0 -1.0
outer loop
vertex 29.8098631410194 1.85523031112621 0.0
vertex 29.9814360162733 4.22295560908665 7.04991620636974e-016
vertex 31.2569488704043 1.25582777609843 0.0
endloop
endfacet
facet normal 0.0 0.0 -1.0
outer loop
vertex 31.2569488704043 1.25582777609843 0.0
vertex 29.9814360162733 4.22295560908665 7.04991620636974e-016
vertex 30.8098631410194 3.58728111869509 7.04991620636974e-016
endloop
endfacet
facet normal 0.0 0.0 -1.0
outer loop
vertex 31.2569488704043 1.25582777609843 0.0
vertex 30.8098631410194 3.58728111869509 7.04991620636974e-016
vertex 31.7745869606094 3.18767942867657 7.04991620636974e-016
endloop
endfacet
facet normal 0.0 0.0 -1.0
outer loop
vertex 31.2569488704043 1.25582777609843 0.0
vertex 31.7745869606094 3.18767942867657 7.04991620636974e-016
vertex 32.8098631410194 1.05138273383284 0.0
endloop
endfacet
facet normal 0.0 0.0 -1.0
outer loop
vertex 32.8098631410194 1.05138273383284 0.0
vertex 31.7745869606094 3.18767942867657 7.04991620636974e-016
vertex 32.8098631410194 3.05138273383284 7.04991620636974e-016
endloop
endfacet
facet normal 0.0 0.0 -1.0
outer loop
vertex 32.8098631410194 1.05138273383284 0.0
vertex 32.8098631410194 3.05138273383284 7.04991620636974e-016
vertex 33.8451393214295 3.18767942867657 7.04991620636974e-016
endloop
endfacet
facet normal 0.0 0.0 -1.0
outer loop
vertex 32.8098631410194 1.05138273383284 0.0
vertex 33.8451393214295 3.18767942867657 7.04991620636974e-016
vertex 34.3627774116346 1.25582777609843 0.0
endloop
endfacet
facet normal 0.0 0.0 -1.0
outer loop
vertex 34.3627774116346 1.25582777609843 0.0
vertex 33.8451393214295 3.18767942867657 7.04991620636974e-016
vertex 34.8098631410194 3.58728111869509 7.04991620636974e-016
endloop
endfacet
facet normal 0.0 0.0 -1.0
outer loop
vertex 34.3627774116346 1.25582777609843 0.0
vertex 34.8098631410194 3.58728111869509 7.04991620636974e-016
vertex 35.8098631410194 1.85523031112621 0.0
endloop
endfacet
facet normal 0.0 0.0 -1.0
outer loop
vertex 35.8098631410194 1.85523031112621 0.0
vertex 34.8098631410194 3.58728111869509 7.04991620636974e-016
vertex 35.6382902657656 4.22295560908665 7.04991620636974e-016
endloop
endfacet
facet normal 0.0 0.0 -1.0
outer loop
vertex 35.8098631410194 1.85523031112621 0.0
vertex 35.6382902657656 4.22295560908665 7.04991620636974e-016
vertex 36.2739647561572 5.05138273383284 7.04991620636974e-016
endloop
endfacet
facet normal 0.0 0.0 -1.0
outer loop
vertex 35.8098631410194 1.85523031112621 0.0
vertex 36.2739647561572 5.05138273383284 7.04991620636974e-016
vertex 37.0525038281387 2.80874204671356 0.0
endloop
endfacet
facet normal 0.0 0.0 -1.0
outer loop
vertex 37.0525038281387 2.80874204671356 0.0
vertex 36.2739647561572 5.05138273383284 7.04991620636974e-016
vertex 36.6735664461757 6.01610655342276 7.04991620636974e-016
endloop
endfacet
facet normal 0.0 0.0 -1.0
outer loop
vertex 37.0525038281387 2.80874204671356 0.0
vertex 36.6735664461757 6.01610655342276 7.04991620636974e-016
vertex 36.8098631410194 7.05138273383284 7.04991620636974e-016
endloop
endfacet
facet normal 0.0 0.0 -1.0
outer loop
vertex 37.0525038281387 2.80874204671356 0.0
vertex 36.8098631410194 7.05138273383284 7.04991620636974e-016
vertex 37.0525038281387 11.2940234209521 0.0
endloop
endfacet
facet normal 0.0 0.0 -1.0
outer loop
vertex 37.0525038281387 2.80874204671356 0.0
vertex 37.0525038281387 11.2940234209521 0.0
vertex 38.0060155637261 10.0513827338328 0.0
endloop
endfacet
facet normal 0.0 0.0 -1.0
outer loop
vertex 37.0525038281387 2.80874204671356 0.0
vertex 38.0060155637261 10.0513827338328 0.0
vertex 38.0060155637261 4.05138273383284 0.0
endloop
endfacet
facet normal 0.0 0.0 -1.0
outer loop
vertex 38.0060155637261 4.05138273383284 0.0
vertex 38.0060155637261 10.0513827338328 0.0
vertex 38.6054180987539 5.49846846321772 0.0
endloop
endfacet
facet normal 0.0 0.0 -1.0
outer loop
vertex 38.6054180987539 5.49846846321772 0.0
vertex 38.0060155637261 10.0513827338328 0.0
vertex 38.6054180987539 8.60429700444796 0.0
endloop
endfacet
facet normal 0.0 0.0 -1.0
outer loop
vertex 38.6054180987539 5.49846846321772 0.0
vertex 38.6054180987539 8.60429700444796 0.0
vertex 38.8098631410194 7.05138273383284 0.0
endloop
endfacet
facet normal 1.0 5.34666593738814e-017 0.0
outer loop
vertex 38.8098631410194 7.05138273383284 0.0
vertex 38.6054180987539 5.49846846321772 2.0
vertex 38.6054180987539 5.49846846321772 0.0
endloop
endfacet
facet normal 0.965925826289068 -0.258819045102522 0.0
outer loop
vertex 38.6054180987539 5.49846846321772 2.0
vertex 38.8098631410194 7.05138273383284 0.0
vertex 38.8098631410194 7.05138273383284 2.0
endloop
endfacet
facet normal 0.965925826289068 0.25881904510252 0.0
outer loop
vertex 38.6054180987539 8.60429700444796 0.0
vertex 38.8098631410194 7.05138273383284 2.0
vertex 38.8098631410194 7.05138273383284 0.0
endloop
endfacet
facet normal 1.0 5.34666593738814e-017 0.0
outer loop
vertex 38.8098631410194 7.05138273383284 2.0
vertex 38.6054180987539 8.60429700444796 0.0
vertex 38.6054180987539 8.60429700444796 2.0
endloop
endfacet
facet normal 0.866025403784439 0.5 0.0
outer loop
vertex 38.0060155637261 10.0513827338328 0.0
vertex 38.6054180987539 8.60429700444796 2.0
vertex 38.6054180987539 8.60429700444796 0.0
endloop
endfacet
facet normal 0.965925826289068 0.25881904510252 0.0
outer loop
vertex 38.6054180987539 8.60429700444796 2.0
vertex 38.0060155637261 10.0513827338328 0.0
vertex 38.0060155637261 10.0513827338328 2.0
endloop
endfacet
facet normal 0.707106781186547 0.707106781186548 0.0
outer loop
vertex 37.0525038281387 11.2940234209521 0.0
vertex 38.0060155637261 10.0513827338328 2.0
vertex 38.0060155637261 10.0513827338328 0.0
endloop
endfacet
facet normal 0.866025403784439 0.5 0.0
outer loop
vertex 38.0060155637261 10.0513827338328 2.0
vertex 37.0525038281387 11.2940234209521 0.0
vertex 37.0525038281387 11.2940234209521 2.0
endloop
endfacet
facet normal 0.5 0.866025403784439 0.0
outer loop
vertex 35.8098631410194 12.2475351565395 2.0
vertex 37.0525038281387 11.2940234209521 0.0
vertex 35.8098631410194 12.2475351565395 0.0
endloop
endfacet
facet normal 0.707106781186547 0.707106781186548 0.0
outer loop
vertex 37.0525038281387 11.2940234209521 0.0
vertex 35.8098631410194 12.2475351565395 2.0
vertex 37.0525038281387 11.2940234209521 2.0
endloop
endfacet
facet normal 0.258819045102521 0.965925826289068 0.0
outer loop
vertex 34.3627774116346 12.8469376915673 2.0
vertex 35.8098631410194 12.2475351565395 0.0
vertex 34.3627774116346 12.8469376915673 0.0
endloop
endfacet
facet normal 0.5 0.866025403784439 0.0
outer loop
vertex 35.8098631410194 12.2475351565395 0.0
vertex 34.3627774116346 12.8469376915673 2.0
vertex 35.8098631410194 12.2475351565395 2.0
endloop
endfacet
facet normal -2.40599967182466e-016 1.0 0.0
outer loop
vertex 32.8098631410194 13.0513827338328 2.0
vertex 34.3627774116346 12.8469376915673 0.0
vertex 32.8098631410194 13.0513827338328 0.0
endloop
endfacet
facet normal 0.258819045102521 0.965925826289068 0.0
outer loop
vertex 34.3627774116346 12.8469376915673 0.0
vertex 32.8098631410194 13.0513827338328 2.0
vertex 34.3627774116346 12.8469376915673 2.0
endloop
endfacet
facet normal 0.0 0.0 1.0
outer loop
vertex 27.014308183285 5.49846846321772 2.0
vertex 27.014308183285 8.60429700444797 2.0
vertex 26.8098631410194 7.05138273383284 2.0
endloop
endfacet
facet normal 0.0 0.0 1.0
outer loop
vertex 27.014308183285 8.60429700444797 2.0
vertex 27.014308183285 5.49846846321772 2.0
vertex 27.6137107183128 4.05138273383285 2.0
endloop
endfacet
facet normal 0.0 0.0 1.0
outer loop
vertex 27.014308183285 8.60429700444797 2.0
vertex 27.6137107183128 4.05138273383285 2.0
vertex 27.6137107183128 10.0513827338328 2.0
endloop
endfacet
facet normal 0.0 0.0 1.0
outer loop
vertex 27.6137107183128 10.0513827338328 2.0
vertex 27.6137107183128 4.05138273383285 2.0
vertex 28.5672224539002 2.80874204671356 2.0
endloop
endfacet
facet normal 0.0 0.0 1.0
outer loop
vertex 27.6137107183128 10.0513827338328 2.0
vertex 28.5672224539002 2.80874204671356 2.0
vertex 28.5672224539002 11.2940234209521 2.0
endloop
endfacet
facet normal 0.0 0.0 1.0
outer loop
vertex 28.5672224539002 11.2940234209521 2.0
vertex 28.5672224539002 2.80874204671356 2.0
vertex 28.8098631410194 7.05138273383284 2.0
endloop
endfacet
facet normal 0.0 0.0 1.0
outer loop
vertex 28.8098631410194 7.05138273383284 2.0
vertex 28.5672224539002 2.80874204671356 2.0
vertex 28.9461598358632 6.01610655342276 2.0
endloop
endfacet
facet normal 0.0 0.0 1.0
outer loop
vertex 28.9461598358632 6.01610655342276 2.0
vertex 28.5672224539002 2.80874204671356 2.0
vertex 29.8098631410194 1.85523031112621 2.0
endloop
endfacet
facet normal 0.0 0.0 1.0
outer loop
vertex 28.9461598358632 6.01610655342276 2.0
vertex 29.8098631410194 1.85523031112621 2.0
vertex 29.3457615258817 5.05138273383284 2.0
endloop
endfacet
facet normal 0.0 0.0 1.0
outer loop
vertex 29.3457615258817 5.05138273383284 2.0
vertex 29.8098631410194 1.85523031112621 2.0
vertex 29.9814360162733 4.22295560908665 2.0
endloop
endfacet
facet normal 0.0 0.0 1.0
outer loop
vertex 29.9814360162733 4.22295560908665 2.0
vertex 29.8098631410194 1.85523031112621 2.0
vertex 31.2569488704043 1.25582777609843 2.0
endloop
endfacet
facet normal 0.0 0.0 1.0
outer loop
vertex 29.9814360162733 4.22295560908665 2.0
vertex 31.2569488704043 1.25582777609843 2.0
vertex 30.8098631410194 3.58728111869509 2.0
endloop
endfacet
facet normal 0.0 0.0 1.0
outer loop
vertex 30.8098631410194 3.58728111869509 2.0
vertex 31.2569488704043 1.25582777609843 2.0
vertex 31.7745869606094 3.18767942867657 2.0
endloop
endfacet
facet normal 0.0 0.0 1.0
outer loop
vertex 31.7745869606094 3.18767942867657 2.0
vertex 31.2569488704043 1.25582777609843 2.0
vertex 32.8098631410194 1.05138273383284 2.0
endloop
endfacet
facet normal 0.0 0.0 1.0
outer loop
vertex 31.7745869606094 3.18767942867657 2.0
vertex 32.8098631410194 1.05138273383284 2.0
vertex 32.8098631410194 3.05138273383284 2.0
endloop
endfacet
facet normal 0.0 0.0 1.0
outer loop
vertex 32.8098631410194 3.05138273383284 2.0
vertex 32.8098631410194 1.05138273383284 2.0
vertex 34.3627774116346 1.25582777609843 2.0
endloop
endfacet
facet normal 0.0 0.0 1.0
outer loop
vertex 32.8098631410194 3.05138273383284 2.0
vertex 34.3627774116346 1.25582777609843 2.0
vertex 33.8451393214295 3.18767942867657 2.0
endloop
endfacet
facet normal 0.0 0.0 1.0
outer loop
vertex 33.8451393214295 3.18767942867657 2.0
vertex 34.3627774116346 1.25582777609843 2.0
vertex 34.8098631410194 3.58728111869509 2.0
endloop
endfacet
facet normal 0.0 0.0 1.0
outer loop
vertex 34.8098631410194 3.58728111869509 2.0
vertex 34.3627774116346 1.25582777609843 2.0
vertex 35.8098631410194 1.85523031112621 2.0
endloop
endfacet
facet normal 0.0 0.0 1.0
outer loop
vertex 34.8098631410194 3.58728111869509 2.0
vertex 35.8098631410194 1.85523031112621 2.0
vertex 35.6382902657656 4.22295560908665 2.0
endloop
endfacet
facet normal 0.0 0.0 1.0
outer loop
vertex 35.6382902657656 4.22295560908665 2.0
vertex 35.8098631410194 1.85523031112621 2.0
vertex 36.2739647561572 5.05138273383284 2.0
endloop
endfacet
facet normal 0.0 0.0 1.0
outer loop
vertex 36.2739647561572 5.05138273383284 2.0
vertex 35.8098631410194 1.85523031112621 2.0
vertex 37.0525038281387 2.80874204671356 2.0
endloop
endfacet
facet normal 0.0 0.0 1.0
outer loop
vertex 36.2739647561572 5.05138273383284 2.0
vertex 37.0525038281387 2.80874204671356 2.0
vertex 36.6735664461757 6.01610655342276 2.0
endloop
endfacet
facet normal 0.0 0.0 1.0
outer loop
vertex 36.6735664461757 6.01610655342276 2.0
vertex 37.0525038281387 2.80874204671356 2.0
vertex 36.8098631410194 7.05138273383284 2.0
endloop
endfacet
facet normal 0.0 0.0 1.0
outer loop
vertex 28.5672224539002 11.2940234209521 2.0
vertex 28.9461598358632 8.08665891424292 2.0
vertex 29.8098631410194 12.2475351565395 2.0
endloop
endfacet
facet normal 0.0 0.0 1.0
outer loop
vertex 28.9461598358632 8.08665891424292 2.0
vertex 28.5672224539002 11.2940234209521 2.0
vertex 28.8098631410194 7.05138273383284 2.0
endloop
endfacet
facet normal 0.0 0.0 1.0
outer loop
vertex 29.8098631410194 12.2475351565395 2.0
vertex 28.9461598358632 8.08665891424292 2.0
vertex 29.3457615258817 9.05138273383284 2.0
endloop
endfacet
facet normal 0.0 0.0 1.0
outer loop
vertex 29.8098631410194 12.2475351565395 2.0
vertex 29.3457615258817 9.05138273383284 2.0
vertex 29.9814360162733 9.87980985857903 2.0
endloop
endfacet
facet normal 0.0 0.0 1.0
outer loop
vertex 29.8098631410194 12.2475351565395 2.0
vertex 29.9814360162733 9.87980985857903 2.0
vertex 31.2569488704043 12.8469376915673 2.0
endloop
endfacet
facet normal 0.0 0.0 1.0
outer loop
vertex 31.2569488704043 12.8469376915673 2.0
vertex 29.9814360162733 9.87980985857903 2.0
vertex 30.8098631410194 10.5154843489706 2.0
endloop
endfacet
facet normal 0.0 0.0 1.0
outer loop
vertex 31.2569488704043 12.8469376915673 2.0
vertex 30.8098631410194 10.5154843489706 2.0
vertex 31.7745869606094 10.9150860389891 2.0
endloop
endfacet
facet normal 0.0 0.0 1.0
outer loop
vertex 31.2569488704043 12.8469376915673 2.0
vertex 31.7745869606094 10.9150860389891 2.0
vertex 32.8098631410194 13.0513827338328 2.0
endloop
endfacet
facet normal 0.0 0.0 1.0
outer loop
vertex 32.8098631410194 13.0513827338328 2.0
vertex 31.7745869606094 10.9150860389891 2.0
vertex 32.8098631410194 11.0513827338328 2.0
endloop
endfacet
facet normal 0.0 0.0 1.0
outer loop
vertex 32.8098631410194 13.0513827338328 2.0
vertex 32.8098631410194 11.0513827338328 2.0
vertex 33.8451393214295 10.9150860389891 2.0
endloop
endfacet
facet normal 0.0 0.0 1.0
outer loop
vertex 32.8098631410194 13.0513827338328 2.0
vertex 33.8451393214295 10.9150860389891 2.0
vertex 34.3627774116346 12.8469376915673 2.0
endloop
endfacet
facet normal 0.0 0.0 1.0
outer loop
vertex 34.3627774116346 12.8469376915673 2.0
vertex 33.8451393214295 10.9150860389891 2.0
vertex 34.8098631410194 10.5154843489706 2.0
endloop
endfacet
facet normal 0.0 0.0 1.0
outer loop
vertex 34.3627774116346 12.8469376915673 2.0
vertex 34.8098631410194 10.5154843489706 2.0
vertex 35.8098631410194 12.2475351565395 2.0
endloop
endfacet
facet normal 0.0 0.0 1.0
outer loop
vertex 35.8098631410194 12.2475351565395 2.0
vertex 34.8098631410194 10.5154843489706 2.0
vertex 35.6382902657656 9.87980985857903 2.0
endloop
endfacet
facet normal 0.0 0.0 1.0
outer loop
vertex 35.8098631410194 12.2475351565395 2.0
vertex 35.6382902657656 9.87980985857903 2.0
vertex 36.2739647561572 9.05138273383284 2.0
endloop
endfacet
facet normal 0.0 0.0 1.0
outer loop
vertex 35.8098631410194 12.2475351565395 2.0
vertex 36.2739647561572 9.05138273383284 2.0
vertex 37.0525038281387 11.2940234209521 2.0
endloop
endfacet
facet normal 0.0 0.0 1.0
outer loop
vertex 37.0525038281387 11.2940234209521 2.0
vertex 36.2739647561572 9.05138273383284 2.0
vertex 36.6735664461757 8.08665891424292 2.0
endloop
endfacet
facet normal 0.0 0.0 1.0
outer loop
vertex 37.0525038281387 11.2940234209521 2.0
vertex 36.6735664461757 8.08665891424292 2.0
vertex 36.8098631410194 7.05138273383284 2.0
endloop
endfacet
facet normal 0.0 0.0 1.0
outer loop
vertex 37.0525038281387 11.2940234209521 2.0
vertex 36.8098631410194 7.05138273383284 2.0
vertex 37.0525038281387 2.80874204671356 2.0
endloop
endfacet
facet normal 0.0 0.0 1.0
outer loop
vertex 37.0525038281387 11.2940234209521 2.0
vertex 37.0525038281387 2.80874204671356 2.0
vertex 38.0060155637261 4.05138273383284 2.0
endloop
endfacet
facet normal 0.0 0.0 1.0
outer loop
vertex 37.0525038281387 11.2940234209521 2.0
vertex 38.0060155637261 4.05138273383284 2.0
vertex 38.0060155637261 10.0513827338328 2.0
endloop
endfacet
facet normal 0.0 0.0 1.0
outer loop
vertex 38.0060155637261 10.0513827338328 2.0
vertex 38.0060155637261 4.05138273383284 2.0
vertex 38.6054180987539 5.49846846321772 2.0
endloop
endfacet
facet normal 0.0 0.0 1.0
outer loop
vertex 38.0060155637261 10.0513827338328 2.0
vertex 38.6054180987539 5.49846846321772 2.0
vertex 38.6054180987539 8.60429700444796 2.0
endloop
endfacet
facet normal 0.0 0.0 1.0
outer loop
vertex 38.6054180987539 8.60429700444796 2.0
vertex 38.6054180987539 5.49846846321772 2.0
vertex 38.8098631410194 7.05138273383284 2.0
endloop
endfacet
facet normal -0.965925826289068 0.258819045102522 0.0
outer loop
vertex 27.014308183285 8.60429700444797 2.0
vertex 26.8098631410194 7.05138273383284 0.0
vertex 26.8098631410194 7.05138273383284 2.0
endloop
endfacet
facet normal -1.0 -1.96044417704232e-016 0.0
outer loop
vertex 26.8098631410194 7.05138273383284 0.0
vertex 27.014308183285 8.60429700444797 2.0
vertex 27.014308183285 8.60429700444797 0.0
endloop
endfacet
facet normal 0.965925826289068 -0.258819045102522 0.0
outer loop
vertex 38.6054180987539 5.49846846321772 0.0
vertex 38.0060155637261 4.05138273383284 2.0
vertex 38.0060155637261 4.05138273383284 0.0
endloop
endfacet
facet normal 0.866025403784439 -0.5 0.0
outer loop
vertex 38.0060155637261 4.05138273383284 2.0
vertex 38.6054180987539 5.49846846321772 0.0
vertex 38.6054180987539 5.49846846321772 2.0
endloop
endfacet
facet normal 0.866025403784439 -0.5 0.0
outer loop
vertex 38.0060155637261 4.05138273383284 0.0
vertex 37.0525038281387 2.80874204671356 2.0
vertex 37.0525038281387 2.80874204671356 0.0
endloop
endfacet
facet normal 0.707106781186548 -0.707106781186547 0.0
outer loop
vertex 37.0525038281387 2.80874204671356 2.0
vertex 38.0060155637261 4.05138273383284 0.0
vertex 38.0060155637261 4.05138273383284 2.0
endloop
endfacet
facet normal 0.707106781186548 -0.707106781186547 0.0
outer loop
vertex 37.0525038281387 2.80874204671356 2.0
vertex 35.8098631410194 1.85523031112621 0.0
vertex 37.0525038281387 2.80874204671356 0.0
endloop
endfacet
facet normal 0.5 -0.866025403784439 0.0
outer loop
vertex 35.8098631410194 1.85523031112621 0.0
vertex 37.0525038281387 2.80874204671356 2.0
vertex 35.8098631410194 1.85523031112621 2.0
endloop
endfacet
facet normal 0.5 -0.866025403784439 0.0
outer loop
vertex 35.8098631410194 1.85523031112621 2.0
vertex 34.3627774116346 1.25582777609843 0.0
vertex 35.8098631410194 1.85523031112621 0.0
endloop
endfacet
facet normal 0.258819045102521 -0.965925826289068 0.0
outer loop
vertex 34.3627774116346 1.25582777609843 0.0
vertex 35.8098631410194 1.85523031112621 2.0
vertex 34.3627774116346 1.25582777609843 2.0
endloop
endfacet
facet normal 0.258819045102521 -0.965925826289068 0.0
outer loop
vertex 34.3627774116346 1.25582777609843 2.0
vertex 32.8098631410194 1.05138273383284 0.0
vertex 34.3627774116346 1.25582777609843 0.0
endloop
endfacet
facet normal -2.04955527599879e-016 -1.0 0.0
outer loop
vertex 32.8098631410194 1.05138273383284 0.0
vertex 34.3627774116346 1.25582777609843 2.0
vertex 32.8098631410194 1.05138273383284 2.0
endloop
endfacet
facet normal -2.04955527599879e-016 -1.0 0.0
outer loop
vertex 32.8098631410194 1.05138273383284 2.0
vertex 31.2569488704043 1.25582777609843 0.0
vertex 32.8098631410194 1.05138273383284 0.0
endloop
endfacet
facet normal -0.258819045102521 -0.965925826289068 0.0
outer loop
vertex 31.2569488704043 1.25582777609843 0.0
vertex 32.8098631410194 1.05138273383284 2.0
vertex 31.2569488704043 1.25582777609843 2.0
endloop
endfacet
facet normal -0.258819045102521 -0.965925826289068 0.0
outer loop
vertex 31.2569488704043 1.25582777609843 2.0
vertex 29.8098631410194 1.85523031112621 0.0
vertex 31.2569488704043 1.25582777609843 0.0
endloop
endfacet
facet normal -0.500000000000001 -0.866025403784438 0.0
outer loop
vertex 29.8098631410194 1.85523031112621 0.0
vertex 31.2569488704043 1.25582777609843 2.0
vertex 29.8098631410194 1.85523031112621 2.0
endloop
endfacet
facet normal -0.500000000000001 -0.866025403784438 0.0
outer loop
vertex 29.8098631410194 1.85523031112621 2.0
vertex 28.5672224539002 2.80874204671356 0.0
vertex 29.8098631410194 1.85523031112621 0.0
endloop
endfacet
facet normal -0.707106781186548 -0.707106781186547 0.0
outer loop
vertex 28.5672224539002 2.80874204671356 0.0
vertex 29.8098631410194 1.85523031112621 2.0
vertex 28.5672224539002 2.80874204671356 2.0
endloop
endfacet
facet normal -0.707106781186548 0.707106781186548 0.0
outer loop
vertex 28.5672224539002 11.2940234209521 2.0
vertex 27.6137107183128 10.0513827338328 0.0
vertex 27.6137107183128 10.0513827338328 2.0
endloop
endfacet
facet normal -0.866025403784438 0.500000000000001 0.0
outer loop
vertex 27.6137107183128 10.0513827338328 0.0
vertex 28.5672224539002 11.2940234209521 2.0
vertex 28.5672224539002 11.2940234209521 0.0
endloop
endfacet
facet normal -0.25881904510252 0.965925826289068 0.0
outer loop
vertex 31.2569488704043 12.8469376915673 2.0
vertex 32.8098631410194 13.0513827338328 0.0
vertex 31.2569488704043 12.8469376915673 0.0
endloop
endfacet
facet normal -2.40599967182466e-016 1.0 0.0
outer loop
vertex 32.8098631410194 13.0513827338328 0.0
vertex 31.2569488704043 12.8469376915673 2.0
vertex 32.8098631410194 13.0513827338328 2.0
endloop
endfacet
facet normal -0.499999999999999 0.866025403784439 0.0
outer loop
vertex 29.8098631410194 12.2475351565395 2.0
vertex 31.2569488704043 12.8469376915673 0.0
vertex 29.8098631410194 12.2475351565395 0.0
endloop
endfacet
facet normal -0.25881904510252 0.965925826289068 0.0
outer loop
vertex 31.2569488704043 12.8469376915673 0.0
vertex 29.8098631410194 12.2475351565395 2.0
vertex 31.2569488704043 12.8469376915673 2.0
endloop
endfacet
facet normal -0.707106781186548 0.707106781186548 0.0
outer loop
vertex 28.5672224539002 11.2940234209521 2.0
vertex 29.8098631410194 12.2475351565395 0.0
vertex 28.5672224539002 11.2940234209521 0.0
endloop
endfacet
facet normal -0.499999999999999 0.866025403784439 0.0
outer loop
vertex 29.8098631410194 12.2475351565395 0.0
vertex 28.5672224539002 11.2940234209521 2.0
vertex 29.8098631410194 12.2475351565395 2.0
endloop
endfacet
facet normal -0.866025403784439 -0.5 0.0
outer loop
vertex 27.6137107183128 4.05138273383285 2.0
vertex 28.5672224539002 2.80874204671356 0.0
vertex 28.5672224539002 2.80874204671356 2.0
endloop
endfacet
facet normal -0.707106781186548 -0.707106781186547 0.0
outer loop
vertex 28.5672224539002 2.80874204671356 0.0
vertex 27.6137107183128 4.05138273383285 2.0
vertex 27.6137107183128 4.05138273383285 0.0
endloop
endfacet
facet normal -0.965925826289068 -0.25881904510252 0.0
outer loop
vertex 27.014308183285 5.49846846321772 2.0
vertex 27.6137107183128 4.05138273383285 0.0
vertex 27.6137107183128 4.05138273383285 2.0
endloop
endfacet
facet normal -0.866025403784439 -0.5 0.0
outer loop
vertex 27.6137107183128 4.05138273383285 0.0
vertex 27.014308183285 5.49846846321772 2.0
vertex 27.014308183285 5.49846846321772 0.0
endloop
endfacet
facet normal -1.0 -1.96044417704232e-016 0.0
outer loop
vertex 26.8098631410194 7.05138273383284 2.0
vertex 27.014308183285 5.49846846321772 0.0
vertex 27.014308183285 5.49846846321772 2.0
endloop
endfacet
facet normal -0.965925826289068 -0.25881904510252 0.0
outer loop
vertex 27.014308183285 5.49846846321772 0.0
vertex 26.8098631410194 7.05138273383284 2.0
vertex 26.8098631410194 7.05138273383284 0.0
endloop
endfacet
facet normal -0.866025403784438 0.500000000000001 0.0
outer loop
vertex 27.6137107183128 10.0513827338328 2.0
vertex 27.014308183285 8.60429700444797 0.0
vertex 27.014308183285 8.60429700444797 2.0
endloop
endfacet
facet normal -0.965925826289068 0.258819045102522 0.0
outer loop
vertex 27.014308183285 8.60429700444797 0.0
vertex 27.6137107183128 10.0513827338328 2.0
vertex 27.6137107183128 10.0513827338328 0.0
endloop
endfacet
facet normal 0.5 -0.866025403784439 0.0
outer loop
vertex 30.8098631410194 10.5154843489706 2.0
vertex 29.9814360162733 9.87980985857903 7.04991620636974e-016
vertex 30.8098631410194 10.5154843489706 7.04991620636974e-016
endloop
endfacet
facet normal 0.707106781186548 -0.707106781186547 0.0
outer loop
vertex 29.9814360162733 9.87980985857903 7.04991620636974e-016
vertex 30.8098631410194 10.5154843489706 2.0
vertex 29.9814360162733 9.87980985857903 2.0
endloop
endfacet
facet normal 0.258819045102521 -0.965925826289068 0.0
outer loop
vertex 31.7745869606094 10.9150860389891 2.0
vertex 30.8098631410194 10.5154843489706 7.04991620636974e-016
vertex 31.7745869606094 10.9150860389891 7.04991620636974e-016
endloop
endfacet
facet normal 0.5 -0.866025403784439 0.0
outer loop
vertex 30.8098631410194 10.5154843489706 7.04991620636974e-016
vertex 31.7745869606094 10.9150860389891 2.0
vertex 30.8098631410194 10.5154843489706 2.0
endloop
endfacet
facet normal 0.0 -1.0 0.0
outer loop
vertex 32.8098631410194 11.0513827338328 2.0
vertex 31.7745869606094 10.9150860389891 7.04991620636974e-016
vertex 32.8098631410194 11.0513827338328 7.04991620636974e-016
endloop
endfacet
facet normal 0.258819045102521 -0.965925826289068 0.0
outer loop
vertex 31.7745869606094 10.9150860389891 7.04991620636974e-016
vertex 32.8098631410194 11.0513827338328 2.0
vertex 31.7745869606094 10.9150860389891 2.0
endloop
endfacet
facet normal -0.25881904510252 -0.965925826289068 0.0
outer loop
vertex 33.8451393214295 10.9150860389891 2.0
vertex 32.8098631410194 11.0513827338328 7.04991620636974e-016
vertex 33.8451393214295 10.9150860389891 7.04991620636974e-016
endloop
endfacet
facet normal 0.0 -1.0 0.0
outer loop
vertex 32.8098631410194 11.0513827338328 7.04991620636974e-016
vertex 33.8451393214295 10.9150860389891 2.0
vertex 32.8098631410194 11.0513827338328 2.0
endloop
endfacet
facet normal -0.5 -0.866025403784439 0.0
outer loop
vertex 34.8098631410194 10.5154843489706 2.0
vertex 33.8451393214295 10.9150860389891 7.04991620636974e-016
vertex 34.8098631410194 10.5154843489706 7.04991620636974e-016
endloop
endfacet
facet normal -0.25881904510252 -0.965925826289068 0.0
outer loop
vertex 33.8451393214295 10.9150860389891 7.04991620636974e-016
vertex 34.8098631410194 10.5154843489706 2.0
vertex 33.8451393214295 10.9150860389891 2.0
endloop
endfacet
facet normal -0.707106781186547 -0.707106781186548 0.0
outer loop
vertex 35.6382902657656 9.87980985857903 2.0
vertex 34.8098631410194 10.5154843489706 7.04991620636974e-016
vertex 35.6382902657656 9.87980985857903 7.04991620636974e-016
endloop
endfacet
facet normal -0.5 -0.866025403784439 0.0
outer loop
vertex 34.8098631410194 10.5154843489706 7.04991620636974e-016
vertex 35.6382902657656 9.87980985857903 2.0
vertex 34.8098631410194 10.5154843489706 2.0
endloop
endfacet
facet normal -0.707106781186547 -0.707106781186548 0.0
outer loop
vertex 35.6382902657656 9.87980985857903 2.0
vertex 36.2739647561572 9.05138273383284 7.04991620636974e-016
vertex 36.2739647561572 9.05138273383284 2.0
endloop
endfacet
facet normal -0.866025403784439 -0.499999999999999 0.0
outer loop
vertex 36.2739647561572 9.05138273383284 7.04991620636974e-016
vertex 35.6382902657656 9.87980985857903 2.0
vertex 35.6382902657656 9.87980985857903 7.04991620636974e-016
endloop
endfacet
facet normal -0.965925826289069 -0.258819045102519 0.0
outer loop
vertex 36.6735664461757 8.08665891424292 2.0
vertex 36.8098631410194 7.05138273383284 7.04991620636974e-016
vertex 36.8098631410194 7.05138273383284 2.0
endloop
endfacet
facet normal -1.0 8.01999890608221e-017 0.0
outer loop
vertex 36.8098631410194 7.05138273383284 7.04991620636974e-016
vertex 36.6735664461757 8.08665891424292 2.0
vertex 36.6735664461757 8.08665891424292 7.04991620636974e-016
endloop
endfacet
facet normal 0.707106781186547 0.707106781186548 0.0
outer loop
vertex 29.9814360162733 4.22295560908665 2.0
vertex 30.8098631410194 3.58728111869509 7.04991620636974e-016
vertex 29.9814360162733 4.22295560908665 7.04991620636974e-016
endloop
endfacet
facet normal 0.5 0.866025403784439 0.0
outer loop
vertex 30.8098631410194 3.58728111869509 7.04991620636974e-016
vertex 29.9814360162733 4.22295560908665 2.0
vertex 30.8098631410194 3.58728111869509 2.0
endloop
endfacet
facet normal -0.866025403784439 -0.499999999999999 0.0
outer loop
vertex 36.2739647561572 9.05138273383284 2.0
vertex 36.6735664461757 8.08665891424292 7.04991620636974e-016
vertex 36.6735664461757 8.08665891424292 2.0
endloop
endfacet
facet normal -0.965925826289069 -0.258819045102519 0.0
outer loop
vertex 36.6735664461757 8.08665891424292 7.04991620636974e-016
vertex 36.2739647561572 9.05138273383284 2.0
vertex 36.2739647561572 9.05138273383284 7.04991620636974e-016
endloop
endfacet
facet normal 0.866025403784438 0.500000000000001 0.0
outer loop
vertex 29.3457615258817 5.05138273383284 7.04991620636974e-016
vertex 29.9814360162733 4.22295560908665 2.0
vertex 29.9814360162733 4.22295560908665 7.04991620636974e-016
endloop
endfacet
facet normal 0.707106781186547 0.707106781186548 0.0
outer loop
vertex 29.9814360162733 4.22295560908665 2.0
vertex 29.3457615258817 5.05138273383284 7.04991620636974e-016
vertex 29.3457615258817 5.05138273383284 2.0
endloop
endfacet
facet normal 0.965925826289068 0.258819045102522 0.0
outer loop
vertex 28.9461598358632 6.01610655342276 7.04991620636974e-016
vertex 29.3457615258817 5.05138273383284 2.0
vertex 29.3457615258817 5.05138273383284 7.04991620636974e-016
endloop
endfacet
facet normal 0.866025403784438 0.500000000000001 0.0
outer loop
vertex 29.3457615258817 5.05138273383284 2.0
vertex 28.9461598358632 6.01610655342276 7.04991620636974e-016
vertex 28.9461598358632 6.01610655342276 2.0
endloop
endfacet
facet normal 0.5 0.866025403784439 0.0
outer loop
vertex 30.8098631410194 3.58728111869509 2.0
vertex 31.7745869606094 3.18767942867657 7.04991620636974e-016
vertex 30.8098631410194 3.58728111869509 7.04991620636974e-016
endloop
endfacet
facet normal 0.258819045102521 0.965925826289068 0.0
outer loop
vertex 31.7745869606094 3.18767942867657 7.04991620636974e-016
vertex 30.8098631410194 3.58728111869509 2.0
vertex 31.7745869606094 3.18767942867657 2.0
endloop
endfacet
facet normal 0.707106781186548 -0.707106781186547 0.0
outer loop
vertex 29.9814360162733 9.87980985857903 7.04991620636974e-016
vertex 29.3457615258817 9.05138273383284 2.0
vertex 29.3457615258817 9.05138273383284 7.04991620636974e-016
endloop
endfacet
facet normal 0.86602540378444 -0.499999999999999 0.0
outer loop
vertex 29.3457615258817 9.05138273383284 2.0
vertex 29.9814360162733 9.87980985857903 7.04991620636974e-016
vertex 29.9814360162733 9.87980985857903 2.0
endloop
endfacet
facet normal 0.86602540378444 -0.499999999999999 0.0
outer loop
vertex 29.3457615258817 9.05138273383284 7.04991620636974e-016
vertex 28.9461598358632 8.08665891424292 2.0
vertex 28.9461598358632 8.08665891424292 7.04991620636974e-016
endloop
endfacet
facet normal 0.965925826289069 -0.25881904510252 0.0
outer loop
vertex 28.9461598358632 8.08665891424292 2.0
vertex 29.3457615258817 9.05138273383284 7.04991620636974e-016
vertex 29.3457615258817 9.05138273383284 2.0
endloop
endfacet
facet normal 0.965925826289069 -0.25881904510252 0.0
outer loop
vertex 28.9461598358632 8.08665891424292 7.04991620636974e-016
vertex 28.8098631410194 7.05138273383284 2.0
vertex 28.8098631410194 7.05138273383284 7.04991620636974e-016
endloop
endfacet
facet normal 1.0 -8.01999890608221e-017 0.0
outer loop
vertex 28.8098631410194 7.05138273383284 2.0
vertex 28.9461598358632 8.08665891424292 7.04991620636974e-016
vertex 28.9461598358632 8.08665891424292 2.0
endloop
endfacet
facet normal 1.0 -8.01999890608221e-017 0.0
outer loop
vertex 28.8098631410194 7.05138273383284 7.04991620636974e-016
vertex 28.9461598358632 6.01610655342276 2.0
vertex 28.9461598358632 6.01610655342276 7.04991620636974e-016
endloop
endfacet
facet normal 0.965925826289068 0.258819045102522 0.0
outer loop
vertex 28.9461598358632 6.01610655342276 2.0
vertex 28.8098631410194 7.05138273383284 7.04991620636974e-016
vertex 28.8098631410194 7.05138273383284 2.0
endloop
endfacet
facet normal 0.258819045102521 0.965925826289068 0.0
outer loop
vertex 31.7745869606094 3.18767942867657 2.0
vertex 32.8098631410194 3.05138273383284 7.04991620636974e-016
vertex 31.7745869606094 3.18767942867657 7.04991620636974e-016
endloop
endfacet
facet normal 2.67333296869407e-017 1.0 0.0
outer loop
vertex 32.8098631410194 3.05138273383284 7.04991620636974e-016
vertex 31.7745869606094 3.18767942867657 2.0
vertex 32.8098631410194 3.05138273383284 2.0
endloop
endfacet
facet normal 2.67333296869407e-017 1.0 0.0
outer loop
vertex 32.8098631410194 3.05138273383284 2.0
vertex 33.8451393214295 3.18767942867657 7.04991620636974e-016
vertex 32.8098631410194 3.05138273383284 7.04991620636974e-016
endloop
endfacet
facet normal -0.258819045102521 0.965925826289068 0.0
outer loop
vertex 33.8451393214295 3.18767942867657 7.04991620636974e-016
vertex 32.8098631410194 3.05138273383284 2.0
vertex 33.8451393214295 3.18767942867657 2.0
endloop
endfacet
facet normal -0.258819045102521 0.965925826289068 0.0
outer loop
vertex 33.8451393214295 3.18767942867657 2.0
vertex 34.8098631410194 3.58728111869509 7.04991620636974e-016
vertex 33.8451393214295 3.18767942867657 7.04991620636974e-016
endloop
endfacet
facet normal -0.5 0.866025403784439 0.0
outer loop
vertex 34.8098631410194 3.58728111869509 7.04991620636974e-016
vertex 33.8451393214295 3.18767942867657 2.0
vertex 34.8098631410194 3.58728111869509 2.0
endloop
endfacet
facet normal -0.5 0.866025403784439 0.0
outer loop
vertex 34.8098631410194 3.58728111869509 2.0
vertex 35.6382902657656 4.22295560908665 7.04991620636974e-016
vertex 34.8098631410194 3.58728111869509 7.04991620636974e-016
endloop
endfacet
facet normal -0.707106781186547 0.707106781186548 0.0
outer loop
vertex 35.6382902657656 4.22295560908665 7.04991620636974e-016
vertex 34.8098631410194 3.58728111869509 2.0
vertex 35.6382902657656 4.22295560908665 2.0
endloop
endfacet
facet normal -0.866025403784439 0.499999999999999 0.0
outer loop
vertex 36.2739647561572 5.05138273383284 2.0
vertex 35.6382902657656 4.22295560908665 7.04991620636974e-016
vertex 35.6382902657656 4.22295560908665 2.0
endloop
endfacet
facet normal -0.707106781186547 0.707106781186548 0.0
outer loop
vertex 35.6382902657656 4.22295560908665 7.04991620636974e-016
vertex 36.2739647561572 5.05138273383284 2.0
vertex 36.2739647561572 5.05138273383284 7.04991620636974e-016
endloop
endfacet
facet normal -0.965925826289069 0.258819045102519 0.0
outer loop
vertex 36.6735664461757 6.01610655342276 2.0
vertex 36.2739647561572 5.05138273383284 7.04991620636974e-016
vertex 36.2739647561572 5.05138273383284 2.0
endloop
endfacet
facet normal -0.866025403784439 0.499999999999999 0.0
outer loop
vertex 36.2739647561572 5.05138273383284 7.04991620636974e-016
vertex 36.6735664461757 6.01610655342276 2.0
vertex 36.6735664461757 6.01610655342276 7.04991620636974e-016
endloop
endfacet
facet normal -1.0 8.01999890608221e-017 0.0
outer loop
vertex 36.8098631410194 7.05138273383284 2.0
vertex 36.6735664461757 6.01610655342276 7.04991620636974e-016
vertex 36.6735664461757 6.01610655342276 2.0
endloop
endfacet
facet normal -0.965925826289069 0.258819045102519 0.0
outer loop
vertex 36.6735664461757 6.01610655342276 7.04991620636974e-016
vertex 36.8098631410194 7.05138273383284 2.0
vertex 36.8098631410194 7.05138273383284 7.04991620636974e-016
endloop
endfacet
endsolid test1
