solid test1
facet normal 0.0 0.0 -1.0
outer loop
vertex 41.8620897190467 -32.5143551157041 3.52495810318487e-016
vertex 45.8620897190467 -34.8237561924626 0.0
vertex 41.8620897190467 -46.3596545773249 3.52495810318487e-016
endloop
endfacet
facet normal 0.0 0.0 -1.0
outer loop
vertex 45.8620897190467 -34.8237561924626 0.0
vertex 41.8620897190467 -32.5143551157041 3.52495810318487e-016
vertex 53.8524707758133 -25.5917053848938 3.52495810318487e-016
endloop
endfacet
facet normal 0.0 0.0 -1.0
outer loop
vertex 45.8620897190467 -34.8237561924626 0.0
vertex 53.8524707758133 -25.5917053848938 3.52495810318487e-016
vertex 53.8524707758133 -30.2105075384108 0.0
endloop
endfacet
facet normal 0.0 0.0 -1.0
outer loop
vertex 53.8524707758133 -30.2105075384108 0.0
vertex 53.8524707758133 -25.5917053848938 3.52495810318487e-016
vertex 65.8428518325799 -32.5143551157041 3.52495810318487e-016
endloop
endfacet
facet normal 0.0 0.0 -1.0
outer loop
vertex 53.8524707758133 -30.2105075384108 0.0
vertex 65.8428518325799 -32.5143551157041 3.52495810318487e-016
vertex 61.8428518325799 -34.8237561924626 0.0
endloop
endfacet
facet normal 0.0 0.0 -1.0
outer loop
vertex 61.8428518325799 -34.8237561924626 0.0
vertex 65.8428518325799 -32.5143551157041 3.52495810318487e-016
vertex 65.8428518325798 -46.3596545773249 3.52495810318487e-016
endloop
endfacet
facet normal 0.0 0.0 -1.0
outer loop
vertex 41.8620897190467 -46.3596545773249 3.52495810318487e-016
vertex 45.8620897190467 -44.0502535005664 0.0
vertex 53.8524707758133 -53.2823043081353 3.52495810318487e-016
endloop
endfacet
facet normal 0.0 0.0 -1.0
outer loop
vertex 45.8620897190467 -44.0502535005664 0.0
vertex 41.8620897190467 -46.3596545773249 3.52495810318487e-016
vertex 45.8620897190467 -34.8237561924626 0.0
endloop
endfacet
facet normal 0.0 0.0 -1.0
outer loop
vertex 53.8524707758133 -53.2823043081353 3.52495810318487e-016
vertex 45.8620897190467 -44.0502535005664 0.0
vertex 53.8524707758133 -48.6635021546183 0.0
endloop
endfacet
facet normal 0.0 0.0 -1.0
outer loop
vertex 53.8524707758133 -53.2823043081353 3.52495810318487e-016
vertex 53.8524707758133 -48.6635021546183 0.0
vertex 61.8428518325798 -44.0502535005664 0.0
endloop
endfacet
facet normal 0.0 0.0 -1.0
outer loop
vertex 53.8524707758133 -53.2823043081353 3.52495810318487e-016
vertex 61.8428518325798 -44.0502535005664 0.0
vertex 65.8428518325798 -46.3596545773249 3.52495810318487e-016
endloop
endfacet
facet normal 0.0 0.0 -1.0
outer loop
vertex 65.8428518325798 -46.3596545773249 3.52495810318487e-016
vertex 61.8428518325798 -44.0502535005664 0.0
vertex 61.8428518325799 -34.8237561924626 0.0
endloop
endfacet
facet normal 0.0 0.0 1.0
outer loop
vertex 41.8620897190467 -46.3596545773249 2.0
vertex 45.8620897190467 -44.0502535005664 2.0
vertex 41.8620897190467 -32.5143551157041 2.0
endloop
endfacet
facet normal 0.0 0.0 1.0
outer loop
vertex 45.8620897190467 -44.0502535005664 2.0
vertex 41.8620897190467 -46.3596545773249 2.0
vertex 53.8524707758133 -53.2823043081353 2.0
endloop
endfacet
facet normal 0.0 0.0 1.0
outer loop
vertex 45.8620897190467 -44.0502535005664 2.0
vertex 53.8524707758133 -53.2823043081353 2.0
vertex 53.8524707758133 -48.6635021546183 2.0
endloop
endfacet
facet normal 0.0 0.0 1.0
outer loop
vertex 53.8524707758133 -48.6635021546183 2.0
vertex 53.8524707758133 -53.2823043081353 2.0
vertex 65.8428518325798 -46.3596545773249 2.0
endloop
endfacet
facet normal 0.0 0.0 1.0
outer loop
vertex 53.8524707758133 -48.6635021546183 2.0
vertex 65.8428518325798 -46.3596545773249 2.0
vertex 61.8428518325798 -44.0502535005664 2.0
endloop
endfacet
facet normal 0.0 0.0 1.0
outer loop
vertex 61.8428518325798 -44.0502535005664 2.0
vertex 65.8428518325798 -46.3596545773249 2.0
vertex 61.8428518325799 -34.8237561924626 2.0
endloop
endfacet
facet normal 0.0 0.0 1.0
outer loop
vertex 41.8620897190467 -32.5143551157041 2.0
vertex 45.8620897190467 -34.8237561924626 2.0
vertex 53.8524707758133 -25.5917053848938 2.0
endloop
endfacet
facet normal 0.0 0.0 1.0
outer loop
vertex 45.8620897190467 -34.8237561924626 2.0
vertex 41.8620897190467 -32.5143551157041 2.0
vertex 45.8620897190467 -44.0502535005664 2.0
endloop
endfacet
facet normal 0.0 0.0 1.0
outer loop
vertex 53.8524707758133 -25.5917053848938 2.0
vertex 45.8620897190467 -34.8237561924626 2.0
vertex 53.8524707758133 -30.2105075384108 2.0
endloop
endfacet
facet normal 0.0 0.0 1.0
outer loop
vertex 53.8524707758133 -25.5917053848938 2.0
vertex 53.8524707758133 -30.2105075384108 2.0
vertex 61.8428518325799 -34.8237561924626 2.0
endloop
endfacet
facet normal 0.0 0.0 1.0
outer loop
vertex 53.8524707758133 -25.5917053848938 2.0
vertex 61.8428518325799 -34.8237561924626 2.0
vertex 65.8428518325799 -32.5143551157041 2.0
endloop
endfacet
facet normal 0.0 0.0 1.0
outer loop
vertex 65.8428518325799 -32.5143551157041 2.0
vertex 61.8428518325799 -34.8237561924626 2.0
vertex 65.8428518325798 -46.3596545773249 2.0
endloop
endfacet
facet normal 1.0 -1.62941451161233e-015 0.0
outer loop
vertex 65.8428518325799 -32.5143551157041 3.52495810318487e-016
vertex 65.8428518325798 -46.3596545773249 2.0
vertex 65.8428518325798 -46.3596545773249 3.52495810318487e-016
endloop
endfacet
facet normal 1.0 -1.62941451161233e-015 0.0
outer loop
vertex 65.8428518325798 -46.3596545773249 2.0
vertex 65.8428518325799 -32.5143551157041 3.52495810318487e-016
vertex 65.8428518325799 -32.5143551157041 2.0
endloop
endfacet
facet normal 0.5 0.866025403784439 0.0
outer loop
vertex 53.8524707758133 -25.5917053848938 2.0
vertex 65.8428518325799 -32.5143551157041 3.52495810318487e-016
vertex 53.8524707758133 -25.5917053848938 3.52495810318487e-016
endloop
endfacet
facet normal 0.5 0.866025403784439 0.0
outer loop
vertex 65.8428518325799 -32.5143551157041 3.52495810318487e-016
vertex 53.8524707758133 -25.5917053848938 2.0
vertex 65.8428518325799 -32.5143551157041 2.0
endloop
endfacet
facet normal -0.5 0.866025403784439 0.0
outer loop
vertex 41.8620897190467 -32.5143551157041 2.0
vertex 53.8524707758133 -25.5917053848938 3.52495810318487e-016
vertex 41.8620897190467 -32.5143551157041 3.52495810318487e-016
endloop
endfacet
facet normal -0.5 0.866025403784439 0.0
outer loop
vertex 53.8524707758133 -25.5917053848938 3.52495810318487e-016
vertex 41.8620897190467 -32.5143551157041 2.0
vertex 53.8524707758133 -25.5917053848938 2.0
endloop
endfacet
facet normal -1.0 -0.0 -0.0
outer loop
vertex 41.8620897190467 -32.5143551157041 2.0
vertex 41.8620897190467 -46.3596545773249 3.52495810318487e-016
vertex 41.8620897190467 -46.3596545773249 2.0
endloop
endfacet
facet normal -1.0 -0.0 -0.0
outer loop
vertex 41.8620897190467 -46.3596545773249 3.52495810318487e-016
vertex 41.8620897190467 -32.5143551157041 2.0
vertex 41.8620897190467 -32.5143551157041 3.52495810318487e-016
endloop
endfacet
facet normal -0.5 -0.866025403784438 -0.0
outer loop
vertex 53.8524707758133 -53.2823043081353 2.0
vertex 41.8620897190467 -46.3596545773249 3.52495810318487e-016
vertex 53.8524707758133 -53.2823043081353 3.52495810318487e-016
endloop
endfacet
facet normal -0.5 -0.866025403784438 -0.0
outer loop
vertex 41.8620897190467 -46.3596545773249 3.52495810318487e-016
vertex 53.8524707758133 -53.2823043081353 2.0
vertex 41.8620897190467 -46.3596545773249 2.0
endloop
endfacet
facet normal 0.5 -0.866025403784439 0.0
outer loop
vertex 65.8428518325798 -46.3596545773249 2.0
vertex 53.8524707758133 -53.2823043081353 3.52495810318487e-016
vertex 65.8428518325798 -46.3596545773249 3.52495810318487e-016
endloop
endfacet
facet normal 0.5 -0.866025403784439 0.0
outer loop
vertex 53.8524707758133 -53.2823043081353 3.52495810318487e-016
vertex 65.8428518325798 -46.3596545773249 2.0
vertex 53.8524707758133 -53.2823043081353 2.0
endloop
endfacet
facet normal -0.5 -0.866025403784439 -0.0
outer loop
vertex 61.8428518325799 -34.8237561924626 2.0
vertex 53.8524707758133 -30.2105075384108 0.0
vertex 61.8428518325799 -34.8237561924626 0.0
endloop
endfacet
facet normal -0.5 -0.866025403784439 -0.0
outer loop
vertex 53.8524707758133 -30.2105075384108 0.0
vertex 61.8428518325799 -34.8237561924626 2.0
vertex 53.8524707758133 -30.2105075384108 2.0
endloop
endfacet
facet normal -1.0 2.44510252450501e-015 0.0
outer loop
vertex 61.8428518325799 -34.8237561924626 2.0
vertex 61.8428518325798 -44.0502535005664 0.0
vertex 61.8428518325798 -44.0502535005664 2.0
endloop
endfacet
facet normal -1.0 2.44510252450501e-015 0.0
outer loop
vertex 61.8428518325798 -44.0502535005664 0.0
vertex 61.8428518325799 -34.8237561924626 2.0
vertex 61.8428518325799 -34.8237561924626 0.0
endloop
endfacet
facet normal -0.5 0.866025403784439 0.0
outer loop
vertex 53.8524707758133 -48.6635021546183 2.0
vertex 61.8428518325798 -44.0502535005664 0.0
vertex 53.8524707758133 -48.6635021546183 0.0
endloop
endfacet
facet normal -0.5 0.866025403784439 0.0
outer loop
vertex 61.8428518325798 -44.0502535005664 0.0
vertex 53.8524707758133 -48.6635021546183 2.0
vertex 61.8428518325798 -44.0502535005664 2.0
endloop
endfacet
facet normal 0.5 0.866025403784439 0.0
outer loop
vertex 45.8620897190467 -44.0502535005664 2.0
vertex 53.8524707758133 -48.6635021546183 0.0
vertex 45.8620897190467 -44.0502535005664 0.0
endloop
endfacet
facet normal 0.5 0.866025403784439 0.0
outer loop
vertex 53.8524707758133 -48.6635021546183 0.0
vertex 45.8620897190467 -44.0502535005664 2.0
vertex 53.8524707758133 -48.6635021546183 2.0
endloop
endfacet
facet normal 1.0 0.0 0.0
outer loop
vertex 45.8620897190467 -34.8237561924626 0.0
vertex 45.8620897190467 -44.0502535005664 2.0
vertex 45.8620897190467 -44.0502535005664 0.0
endloop
endfacet
facet normal 1.0 0.0 0.0
outer loop
vertex 45.8620897190467 -44.0502535005664 2.0
vertex 45.8620897190467 -34.8237561924626 0.0
vertex 45.8620897190467 -34.8237561924626 2.0
endloop
endfacet
facet normal 0.5 -0.866025403784439 0.0
outer loop
vertex 53.8524707758133 -30.2105075384108 2.0
vertex 45.8620897190467 -34.8237561924626 0.0
vertex 53.8524707758133 -30.2105075384108 0.0
endloop
endfacet
facet normal 0.5 -0.866025403784439 0.0
outer loop
vertex 45.8620897190467 -34.8237561924626 0.0
vertex 53.8524707758133 -30.2105075384108 2.0
vertex 45.8620897190467 -34.8237561924626 2.0
endloop
endfacet
endsolid test1
