solid test1
facet normal 0.0 0.0 -1.0
outer loop
vertex 31.2154896689214 20.0107118869949 0.0
vertex 33.2154896689214 18.0107118869949 6.34492458573277e-015
vertex 31.2154896689214 0.0107118869948916 0.0
endloop
endfacet
facet normal 0.0 0.0 -1.0
outer loop
vertex 33.2154896689214 18.0107118869949 6.34492458573277e-015
vertex 31.2154896689214 20.0107118869949 0.0
vertex 41.2154896689214 20.0107118869949 0.0
endloop
endfacet
facet normal 0.0 0.0 -1.0
outer loop
vertex 33.2154896689214 18.0107118869949 6.34492458573277e-015
vertex 41.2154896689214 20.0107118869949 0.0
vertex 39.2154896689214 18.0107118869949 6.34492458573277e-015
endloop
endfacet
facet normal 0.0 0.0 -1.0
outer loop
vertex 39.2154896689214 18.0107118869949 6.34492458573277e-015
vertex 41.2154896689214 20.0107118869949 0.0
vertex 39.2154896689214 2.01071188699489 6.34492458573277e-015
endloop
endfacet
facet normal 0.0 0.0 -1.0
outer loop
vertex 31.2154896689214 0.0107118869948916 0.0
vertex 33.2154896689214 2.01071188699489 6.34492458573277e-015
vertex 41.2154896689214 0.0107118869948916 0.0
endloop
endfacet
facet normal 0.0 0.0 -1.0
outer loop
vertex 33.2154896689214 2.01071188699489 6.34492458573277e-015
vertex 31.2154896689214 0.0107118869948916 0.0
vertex 33.2154896689214 18.0107118869949 6.34492458573277e-015
endloop
endfacet
facet normal 0.0 0.0 -1.0
outer loop
vertex 41.2154896689214 0.0107118869948916 0.0
vertex 33.2154896689214 2.01071188699489 6.34492458573277e-015
vertex 39.2154896689214 2.01071188699489 6.34492458573277e-015
endloop
endfacet
facet normal 0.0 0.0 -1.0
outer loop
vertex 41.2154896689214 0.0107118869948916 0.0
vertex 39.2154896689214 2.01071188699489 6.34492458573277e-015
vertex 41.2154896689214 20.0107118869949 0.0
endloop
endfacet
facet normal 1.0 0.0 0.0
outer loop
vertex 41.2154896689214 20.0107118869949 0.0
vertex 41.2154896689214 0.0107118869948916 4.0
vertex 41.2154896689214 0.0107118869948916 0.0
endloop
endfacet
facet normal 1.0 0.0 0.0
outer loop
vertex 41.2154896689214 0.0107118869948916 4.0
vertex 41.2154896689214 20.0107118869949 0.0
vertex 41.2154896689214 20.0107118869949 4.0
endloop
endfacet
facet normal 0.0 1.0 0.0
outer loop
vertex 31.2154896689214 20.0107118869949 4.0
vertex 41.2154896689214 20.0107118869949 0.0
vertex 31.2154896689214 20.0107118869949 0.0
endloop
endfacet
facet normal 0.0 1.0 0.0
outer loop
vertex 41.2154896689214 20.0107118869949 0.0
vertex 31.2154896689214 20.0107118869949 4.0
vertex 41.2154896689214 20.0107118869949 4.0
endloop
endfacet
facet normal -1.0 0.0 0.0
outer loop
vertex 31.2154896689214 20.0107118869949 4.0
vertex 31.2154896689214 0.0107118869948916 0.0
vertex 31.2154896689214 0.0107118869948916 4.0
endloop
endfacet
facet normal -1.0 0.0 0.0
outer loop
vertex 31.2154896689214 0.0107118869948916 0.0
vertex 31.2154896689214 20.0107118869949 4.0
vertex 31.2154896689214 20.0107118869949 0.0
endloop
endfacet
facet normal -0.0 -1.0 -0.0
outer loop
vertex 41.2154896689214 0.0107118869948916 4.0
vertex 31.2154896689214 0.0107118869948916 0.0
vertex 41.2154896689214 0.0107118869948916 0.0
endloop
endfacet
facet normal -0.0 -1.0 -0.0
outer loop
vertex 31.2154896689214 0.0107118869948916 0.0
vertex 41.2154896689214 0.0107118869948916 4.0
vertex 31.2154896689214 0.0107118869948916 4.0
endloop
endfacet
facet normal 0.0 0.0 1.0
outer loop
vertex 31.2154896689214 0.0107118869948916 4.0
vertex 33.2154896689214 2.01071188699489 4.0
vertex 31.2154896689214 20.0107118869949 4.0
endloop
endfacet
facet normal 0.0 0.0 1.0
outer loop
vertex 33.2154896689214 2.01071188699489 4.0
vertex 31.2154896689214 0.0107118869948916 4.0
vertex 41.2154896689214 0.0107118869948916 4.0
endloop
endfacet
facet normal 0.0 0.0 1.0
outer loop
vertex 33.2154896689214 2.01071188699489 4.0
vertex 41.2154896689214 0.0107118869948916 4.0
vertex 39.2154896689214 2.01071188699489 4.0
endloop
endfacet
facet normal 0.0 0.0 1.0
outer loop
vertex 39.2154896689214 2.01071188699489 4.0
vertex 41.2154896689214 0.0107118869948916 4.0
vertex 39.2154896689214 18.0107118869949 4.0
endloop
endfacet
facet normal 0.0 0.0 1.0
outer loop
vertex 31.2154896689214 20.0107118869949 4.0
vertex 33.2154896689214 18.0107118869949 4.0
vertex 41.2154896689214 20.0107118869949 4.0
endloop
endfacet
facet normal 0.0 0.0 1.0
outer loop
vertex 33.2154896689214 18.0107118869949 4.0
vertex 31.2154896689214 20.0107118869949 4.0
vertex 33.2154896689214 2.01071188699489 4.0
endloop
endfacet
facet normal 0.0 0.0 1.0
outer loop
vertex 41.2154896689214 20.0107118869949 4.0
vertex 33.2154896689214 18.0107118869949 4.0
vertex 39.2154896689214 18.0107118869949 4.0
endloop
endfacet
facet normal 0.0 0.0 1.0
outer loop
vertex 41.2154896689214 20.0107118869949 4.0
vertex 39.2154896689214 18.0107118869949 4.0
vertex 41.2154896689214 0.0107118869948916 4.0
endloop
endfacet
facet normal -0.0 -1.0 -0.0
outer loop
vertex 39.2154896689214 18.0107118869949 4.0
vertex 33.2154896689214 18.0107118869949 6.34492458573277e-015
vertex 39.2154896689214 18.0107118869949 6.34492458573277e-015
endloop
endfacet
facet normal -0.0 -1.0 -0.0
outer loop
vertex 33.2154896689214 18.0107118869949 6.34492458573277e-015
vertex 39.2154896689214 18.0107118869949 4.0
vertex 33.2154896689214 18.0107118869949 4.0
endloop
endfacet
facet normal 1.0 0.0 0.0
outer loop
vertex 33.2154896689214 18.0107118869949 6.34492458573277e-015
vertex 33.2154896689214 2.01071188699489 4.0
vertex 33.2154896689214 2.01071188699489 6.34492458573277e-015
endloop
endfacet
facet normal 1.0 0.0 0.0
outer loop
vertex 33.2154896689214 2.01071188699489 4.0
vertex 33.2154896689214 18.0107118869949 6.34492458573277e-015
vertex 33.2154896689214 18.0107118869949 4.0
endloop
endfacet
facet normal 1.17498603439496e-016 1.0 0.0
outer loop
vertex 33.2154896689214 2.01071188699489 4.0
vertex 39.2154896689214 2.01071188699489 6.34492458573277e-015
vertex 33.2154896689214 2.01071188699489 6.34492458573277e-015
endloop
endfacet
facet normal 1.17498603439496e-016 1.0 0.0
outer loop
vertex 39.2154896689214 2.01071188699489 6.34492458573277e-015
vertex 33.2154896689214 2.01071188699489 4.0
vertex 39.2154896689214 2.01071188699489 4.0
endloop
endfacet
facet normal -1.0 0.0 0.0
outer loop
vertex 39.2154896689214 18.0107118869949 4.0
vertex 39.2154896689214 2.01071188699489 6.34492458573277e-015
vertex 39.2154896689214 2.01071188699489 4.0
endloop
endfacet
facet normal -1.0 0.0 0.0
outer loop
vertex 39.2154896689214 2.01071188699489 6.34492458573277e-015
vertex 39.2154896689214 18.0107118869949 4.0
vertex 39.2154896689214 18.0107118869949 6.34492458573277e-015
endloop
endfacet
endsolid test1
