solid test1
facet normal 0.0 0.0 -1.0
outer loop
vertex 79.847091174899 -30.4877631566916 4.22994972382185e-015
vertex 81.847091174899 -32.4877631566916 4.22994972382185e-015
vertex 79.847091174899 -50.4877631566916 4.22994972382185e-015
endloop
endfacet
facet normal 0.0 0.0 -1.0
outer loop
vertex 81.847091174899 -32.4877631566916 4.22994972382185e-015
vertex 79.847091174899 -30.4877631566916 4.22994972382185e-015
vertex 89.847091174899 -30.4877631566916 4.22994972382185e-015
endloop
endfacet
facet normal 0.0 0.0 -1.0
outer loop
vertex 81.847091174899 -32.4877631566916 4.22994972382185e-015
vertex 89.847091174899 -30.4877631566916 4.22994972382185e-015
vertex 87.847091174899 -32.4877631566916 4.22994972382185e-015
endloop
endfacet
facet normal 0.0 0.0 -1.0
outer loop
vertex 87.847091174899 -32.4877631566916 4.22994972382185e-015
vertex 89.847091174899 -30.4877631566916 4.22994972382185e-015
vertex 87.847091174899 -48.4877631566916 4.22994972382185e-015
endloop
endfacet
facet normal 0.0 0.0 -1.0
outer loop
vertex 79.847091174899 -50.4877631566916 4.22994972382185e-015
vertex 81.847091174899 -48.4877631566916 4.22994972382185e-015
vertex 89.847091174899 -50.4877631566916 4.22994972382185e-015
endloop
endfacet
facet normal 0.0 0.0 -1.0
outer loop
vertex 81.847091174899 -48.4877631566916 4.22994972382185e-015
vertex 79.847091174899 -50.4877631566916 4.22994972382185e-015
vertex 81.847091174899 -32.4877631566916 4.22994972382185e-015
endloop
endfacet
facet normal 0.0 0.0 -1.0
outer loop
vertex 89.847091174899 -50.4877631566916 4.22994972382185e-015
vertex 81.847091174899 -48.4877631566916 4.22994972382185e-015
vertex 87.847091174899 -48.4877631566916 4.22994972382185e-015
endloop
endfacet
facet normal 0.0 0.0 -1.0
outer loop
vertex 89.847091174899 -50.4877631566916 4.22994972382185e-015
vertex 87.847091174899 -48.4877631566916 4.22994972382185e-015
vertex 89.847091174899 -30.4877631566916 4.22994972382185e-015
endloop
endfacet
facet normal -0.0 -1.0 -0.0
outer loop
vertex 87.847091174899 -32.4877631566916 4.0
vertex 81.847091174899 -32.4877631566916 4.22994972382185e-015
vertex 87.847091174899 -32.4877631566916 4.22994972382185e-015
endloop
endfacet
facet normal -0.0 -1.0 -0.0
outer loop
vertex 81.847091174899 -32.4877631566916 4.22994972382185e-015
vertex 87.847091174899 -32.4877631566916 4.0
vertex 81.847091174899 -32.4877631566916 4.0
endloop
endfacet
facet normal -1.0 0.0 0.0
outer loop
vertex 87.847091174899 -32.4877631566916 4.0
vertex 87.847091174899 -48.4877631566916 4.22994972382185e-015
vertex 87.847091174899 -48.4877631566916 4.0
endloop
endfacet
facet normal -1.0 0.0 0.0
outer loop
vertex 87.847091174899 -48.4877631566916 4.22994972382185e-015
vertex 87.847091174899 -32.4877631566916 4.0
vertex 87.847091174899 -32.4877631566916 4.22994972382185e-015
endloop
endfacet
facet normal 0.0 1.0 0.0
outer loop
vertex 81.847091174899 -48.4877631566916 4.0
vertex 87.847091174899 -48.4877631566916 4.22994972382185e-015
vertex 81.847091174899 -48.4877631566916 4.22994972382185e-015
endloop
endfacet
facet normal 0.0 1.0 0.0
outer loop
vertex 87.847091174899 -48.4877631566916 4.22994972382185e-015
vertex 81.847091174899 -48.4877631566916 4.0
vertex 87.847091174899 -48.4877631566916 4.0
endloop
endfacet
facet normal 1.0 0.0 0.0
outer loop
vertex 81.847091174899 -32.4877631566916 4.22994972382185e-015
vertex 81.847091174899 -48.4877631566916 4.0
vertex 81.847091174899 -48.4877631566916 4.22994972382185e-015
endloop
endfacet
facet normal 1.0 0.0 0.0
outer loop
vertex 81.847091174899 -48.4877631566916 4.0
vertex 81.847091174899 -32.4877631566916 4.22994972382185e-015
vertex 81.847091174899 -32.4877631566916 4.0
endloop
endfacet
facet normal -1.0 0.0 0.0
outer loop
vertex 79.847091174899 -30.4877631566916 4.0
vertex 79.847091174899 -50.4877631566916 4.22994972382185e-015
vertex 79.847091174899 -50.4877631566916 4.0
endloop
endfacet
facet normal -1.0 0.0 0.0
outer loop
vertex 79.847091174899 -50.4877631566916 4.22994972382185e-015
vertex 79.847091174899 -30.4877631566916 4.0
vertex 79.847091174899 -30.4877631566916 4.22994972382185e-015
endloop
endfacet
facet normal -0.0 -1.0 -0.0
outer loop
vertex 89.847091174899 -50.4877631566916 4.0
vertex 79.847091174899 -50.4877631566916 4.22994972382185e-015
vertex 89.847091174899 -50.4877631566916 4.22994972382185e-015
endloop
endfacet
facet normal -0.0 -1.0 -0.0
outer loop
vertex 79.847091174899 -50.4877631566916 4.22994972382185e-015
vertex 89.847091174899 -50.4877631566916 4.0
vertex 79.847091174899 -50.4877631566916 4.0
endloop
endfacet
facet normal 1.0 0.0 0.0
outer loop
vertex 89.847091174899 -30.4877631566916 4.22994972382185e-015
vertex 89.847091174899 -50.4877631566916 4.0
vertex 89.847091174899 -50.4877631566916 4.22994972382185e-015
endloop
endfacet
facet normal 1.0 0.0 0.0
outer loop
vertex 89.847091174899 -50.4877631566916 4.0
vertex 89.847091174899 -30.4877631566916 4.22994972382185e-015
vertex 89.847091174899 -30.4877631566916 4.0
endloop
endfacet
facet normal 0.0 1.0 0.0
outer loop
vertex 79.847091174899 -30.4877631566916 4.0
vertex 89.847091174899 -30.4877631566916 4.22994972382185e-015
vertex 79.847091174899 -30.4877631566916 4.22994972382185e-015
endloop
endfacet
facet normal 0.0 1.0 0.0
outer loop
vertex 89.847091174899 -30.4877631566916 4.22994972382185e-015
vertex 79.847091174899 -30.4877631566916 4.0
vertex 89.847091174899 -30.4877631566916 4.0
endloop
endfacet
facet normal 0.0 0.0 1.0
outer loop
vertex 79.847091174899 -50.4877631566916 4.0
vertex 81.847091174899 -48.4877631566916 4.0
vertex 79.847091174899 -30.4877631566916 4.0
endloop
endfacet
facet normal 0.0 0.0 1.0
outer loop
vertex 81.847091174899 -48.4877631566916 4.0
vertex 79.847091174899 -50.4877631566916 4.0
vertex 89.847091174899 -50.4877631566916 4.0
endloop
endfacet
facet normal 0.0 0.0 1.0
outer loop
vertex 81.847091174899 -48.4877631566916 4.0
vertex 89.847091174899 -50.4877631566916 4.0
vertex 87.847091174899 -48.4877631566916 4.0
endloop
endfacet
facet normal 0.0 0.0 1.0
outer loop
vertex 87.847091174899 -48.4877631566916 4.0
vertex 89.847091174899 -50.4877631566916 4.0
vertex 87.847091174899 -32.4877631566916 4.0
endloop
endfacet
facet normal 0.0 0.0 1.0
outer loop
vertex 79.847091174899 -30.4877631566916 4.0
vertex 81.847091174899 -32.4877631566916 4.0
vertex 89.847091174899 -30.4877631566916 4.0
endloop
endfacet
facet normal 0.0 0.0 1.0
outer loop
vertex 81.847091174899 -32.4877631566916 4.0
vertex 79.847091174899 -30.4877631566916 4.0
vertex 81.847091174899 -48.4877631566916 4.0
endloop
endfacet
facet normal 0.0 0.0 1.0
outer loop
vertex 89.847091174899 -30.4877631566916 4.0
vertex 81.847091174899 -32.4877631566916 4.0
vertex 87.847091174899 -32.4877631566916 4.0
endloop
endfacet
facet normal 0.0 0.0 1.0
outer loop
vertex 89.847091174899 -30.4877631566916 4.0
vertex 87.847091174899 -32.4877631566916 4.0
vertex 89.847091174899 -50.4877631566916 4.0
endloop
endfacet
endsolid test1
