solid test1
facet normal -1.0 1.12798659301916e-014 0.0
outer loop
vertex 106.4 20.0 2.0
vertex 106.4 18.0 0.0
vertex 106.4 18.0 2.0
endloop
endfacet
facet normal -1.0 1.12798659301916e-014 0.0
outer loop
vertex 106.4 18.0 0.0
vertex 106.4 20.0 2.0
vertex 106.4 20.0 0.0
endloop
endfacet
facet normal -1.0 0.0 0.0
outer loop
vertex 110.4 18.0 2.0
vertex 110.4 0.0 0.0
vertex 110.4 0.0 2.0
endloop
endfacet
facet normal -1.0 0.0 0.0
outer loop
vertex 110.4 0.0 0.0
vertex 110.4 18.0 2.0
vertex 110.4 18.0 0.0
endloop
endfacet
facet normal 1.0 0.0 0.0
outer loop
vertex 116.4 20.0 0.0
vertex 116.4 18.0 2.0
vertex 116.4 18.0 0.0
endloop
endfacet
facet normal 1.0 0.0 0.0
outer loop
vertex 116.4 18.0 2.0
vertex 116.4 20.0 0.0
vertex 116.4 20.0 2.0
endloop
endfacet
facet normal -0.0 -1.0 -0.0
outer loop
vertex 112.4 0.0 2.0
vertex 110.4 0.0 0.0
vertex 112.4 0.0 0.0
endloop
endfacet
facet normal -0.0 -1.0 -0.0
outer loop
vertex 110.4 0.0 0.0
vertex 112.4 0.0 2.0
vertex 110.4 0.0 2.0
endloop
endfacet
facet normal -0.0 1.0 0.0
outer loop
vertex 106.4 20.0 2.0
vertex 116.4 20.0 0.0
vertex 106.4 20.0 0.0
endloop
endfacet
facet normal -0.0 1.0 0.0
outer loop
vertex 116.4 20.0 0.0
vertex 106.4 20.0 2.0
vertex 116.4 20.0 2.0
endloop
endfacet
facet normal -0.0 -1.0 -0.0
outer loop
vertex 110.4 18.0 2.0
vertex 106.4 18.0 0.0
vertex 110.4 18.0 0.0
endloop
endfacet
facet normal -0.0 -1.0 -0.0
outer loop
vertex 106.4 18.0 0.0
vertex 110.4 18.0 2.0
vertex 106.4 18.0 2.0
endloop
endfacet
facet normal 1.0 0.0 0.0
outer loop
vertex 112.4 18.0 0.0
vertex 112.4 0.0 2.0
vertex 112.4 0.0 0.0
endloop
endfacet
facet normal 1.0 0.0 0.0
outer loop
vertex 112.4 0.0 2.0
vertex 112.4 18.0 0.0
vertex 112.4 18.0 2.0
endloop
endfacet
facet normal 0.0 0.0 -1.0
outer loop
vertex 106.4 20.0 0.0
vertex 110.4 18.0 0.0
vertex 106.4 18.0 0.0
endloop
endfacet
facet normal 0.0 0.0 -1.0
outer loop
vertex 110.4 18.0 0.0
vertex 106.4 20.0 0.0
vertex 116.4 20.0 0.0
endloop
endfacet
facet normal 0.0 0.0 -1.0
outer loop
vertex 110.4 18.0 0.0
vertex 116.4 20.0 0.0
vertex 112.4 18.0 0.0
endloop
endfacet
facet normal 0.0 0.0 -1.0
outer loop
vertex 110.4 18.0 0.0
vertex 112.4 18.0 0.0
vertex 110.4 0.0 0.0
endloop
endfacet
facet normal 0.0 0.0 -1.0
outer loop
vertex 112.4 18.0 0.0
vertex 116.4 20.0 0.0
vertex 116.4 18.0 0.0
endloop
endfacet
facet normal 0.0 0.0 -1.0
outer loop
vertex 112.4 0.0 0.0
vertex 110.4 0.0 0.0
vertex 112.4 18.0 0.0
endloop
endfacet
facet normal -0.0 -1.0 -0.0
outer loop
vertex 116.4 18.0 2.0
vertex 112.4 18.0 0.0
vertex 116.4 18.0 0.0
endloop
endfacet
facet normal -0.0 -1.0 -0.0
outer loop
vertex 112.4 18.0 0.0
vertex 116.4 18.0 2.0
vertex 112.4 18.0 2.0
endloop
endfacet
facet normal -0.0 -0.0 1.0
outer loop
vertex 112.4 0.0 2.0
vertex 110.4 18.0 2.0
vertex 110.4 0.0 2.0
endloop
endfacet
facet normal -0.0 -0.0 1.0
outer loop
vertex 110.4 18.0 2.0
vertex 106.4 20.0 2.0
vertex 106.4 18.0 2.0
endloop
endfacet
facet normal -0.0 -0.0 1.0
outer loop
vertex 106.4 20.0 2.0
vertex 110.4 18.0 2.0
vertex 116.4 20.0 2.0
endloop
endfacet
facet normal -0.0 -0.0 1.0
outer loop
vertex 116.4 20.0 2.0
vertex 110.4 18.0 2.0
vertex 112.4 18.0 2.0
endloop
endfacet
facet normal -0.0 -0.0 1.0
outer loop
vertex 112.4 18.0 2.0
vertex 110.4 18.0 2.0
vertex 112.4 0.0 2.0
endloop
endfacet
facet normal -0.0 -0.0 1.0
outer loop
vertex 116.4 20.0 2.0
vertex 112.4 18.0 2.0
vertex 116.4 18.0 2.0
endloop
endfacet
endsolid test1
