solid test1
facet normal -0.965925826289068 0.258819045102521 0.0
outer loop
vertex 38.6296291314453 -1.2940952255126 10.0
vertex 38.1301270189222 -2.5 0.0
vertex 38.1301270189222 -2.5 10.0
endloop
endfacet
facet normal -0.866025403784439 0.5 0.0
outer loop
vertex 38.1301270189222 -2.5 0.0
vertex 38.6296291314453 -1.2940952255126 10.0
vertex 38.6296291314453 -1.2940952255126 0.0
endloop
endfacet
facet normal -0.500000000000001 -0.866025403784438 0.0
outer loop
vertex 36.3 4.33012701892219 10.0
vertex 35.0940952255126 4.82962913144534 0.0
vertex 36.3 4.33012701892219 0.0
endloop
endfacet
facet normal -0.258819045102521 -0.965925826289068 0.0
outer loop
vertex 35.0940952255126 4.82962913144534 0.0
vertex 36.3 4.33012701892219 10.0
vertex 35.0940952255126 4.82962913144534 10.0
endloop
endfacet
facet normal 0.0 0.0 -1.0
outer loop
vertex 24.1407417371093 2.58819045102521 0.0
vertex 24.1407417371093 -2.58819045102521 0.0
vertex 23.8 0.0 0.0
endloop
endfacet
facet normal 0.0 0.0 -1.0
outer loop
vertex 24.1407417371093 -2.58819045102521 0.0
vertex 24.1407417371093 2.58819045102521 0.0
vertex 25.1397459621556 -5.0 0.0
endloop
endfacet
facet normal 0.0 0.0 -1.0
outer loop
vertex 25.1397459621556 -5.0 0.0
vertex 24.1407417371093 2.58819045102521 0.0
vertex 25.1397459621556 5.0 0.0
endloop
endfacet
facet normal 0.0 0.0 -1.0
outer loop
vertex 25.1397459621556 -5.0 0.0
vertex 25.1397459621556 5.0 0.0
vertex 26.7289321881345 -7.07106781186547 0.0
endloop
endfacet
facet normal 0.0 0.0 -1.0
outer loop
vertex 26.7289321881345 -7.07106781186547 0.0
vertex 25.1397459621556 5.0 0.0
vertex 26.7289321881345 7.07106781186548 0.0
endloop
endfacet
facet normal 0.0 0.0 -1.0
outer loop
vertex 26.7289321881345 -7.07106781186547 0.0
vertex 26.7289321881345 7.07106781186548 0.0
vertex 28.8 -8.66025403784439 0.0
endloop
endfacet
facet normal 0.0 0.0 -1.0
outer loop
vertex 28.8 -8.66025403784439 0.0
vertex 26.7289321881345 7.07106781186548 0.0
vertex 28.8 8.66025403784439 0.0
endloop
endfacet
facet normal 0.0 0.0 -1.0
outer loop
vertex 28.8 -8.66025403784439 0.0
vertex 28.8 8.66025403784439 0.0
vertex 28.8 0.0 0.0
endloop
endfacet
facet normal 0.0 0.0 -1.0
outer loop
vertex 28.8 0.0 0.0
vertex 28.8 8.66025403784439 0.0
vertex 28.9703708685547 1.29409522551261 0.0
endloop
endfacet
facet normal 0.0 0.0 -1.0
outer loop
vertex 28.9703708685547 1.29409522551261 0.0
vertex 28.8 8.66025403784439 0.0
vertex 31.2118095489748 9.65925826289068 0.0
endloop
endfacet
facet normal 0.0 0.0 -1.0
outer loop
vertex 28.9703708685547 1.29409522551261 0.0
vertex 31.2118095489748 9.65925826289068 0.0
vertex 29.4698729810778 2.5 0.0
endloop
endfacet
facet normal 0.0 0.0 -1.0
outer loop
vertex 29.4698729810778 2.5 0.0
vertex 31.2118095489748 9.65925826289068 0.0
vertex 30.2644660940673 3.53553390593274 0.0
endloop
endfacet
facet normal 0.0 0.0 -1.0
outer loop
vertex 30.2644660940673 3.53553390593274 0.0
vertex 31.2118095489748 9.65925826289068 0.0
vertex 31.3 4.33012701892219 0.0
endloop
endfacet
facet normal 0.0 0.0 -1.0
outer loop
vertex 31.3 4.33012701892219 0.0
vertex 31.2118095489748 9.65925826289068 0.0
vertex 33.8 10.0 0.0
endloop
endfacet
facet normal 0.0 0.0 -1.0
outer loop
vertex 31.3 4.33012701892219 0.0
vertex 33.8 10.0 0.0
vertex 32.5059047744874 4.82962913144534 0.0
endloop
endfacet
facet normal 0.0 0.0 -1.0
outer loop
vertex 32.5059047744874 4.82962913144534 0.0
vertex 33.8 10.0 0.0
vertex 33.8 5.0 0.0
endloop
endfacet
facet normal 0.0 0.0 -1.0
outer loop
vertex 33.8 5.0 0.0
vertex 33.8 10.0 0.0
vertex 36.3881904510252 9.65925826289068 0.0
endloop
endfacet
facet normal 0.0 0.0 -1.0
outer loop
vertex 33.8 5.0 0.0
vertex 36.3881904510252 9.65925826289068 0.0
vertex 35.0940952255126 4.82962913144534 0.0
endloop
endfacet
facet normal 0.0 0.0 -1.0
outer loop
vertex 35.0940952255126 4.82962913144534 0.0
vertex 36.3881904510252 9.65925826289068 0.0
vertex 36.3 4.33012701892219 0.0
endloop
endfacet
facet normal 0.0 0.0 -1.0
outer loop
vertex 36.3 4.33012701892219 0.0
vertex 36.3881904510252 9.65925826289068 0.0
vertex 37.3355339059327 3.53553390593273 0.0
endloop
endfacet
facet normal 0.0 0.0 -1.0
outer loop
vertex 37.3355339059327 3.53553390593273 0.0
vertex 36.3881904510252 9.65925826289068 0.0
vertex 38.8 8.66025403784438 0.0
endloop
endfacet
facet normal 0.0 0.0 -1.0
outer loop
vertex 37.3355339059327 3.53553390593273 0.0
vertex 38.8 8.66025403784438 0.0
vertex 38.1301270189222 2.5 0.0
endloop
endfacet
facet normal 0.0 0.0 -1.0
outer loop
vertex 38.1301270189222 2.5 0.0
vertex 38.8 8.66025403784438 0.0
vertex 38.6296291314453 1.2940952255126 0.0
endloop
endfacet
facet normal 0.0 0.0 -1.0
outer loop
vertex 38.6296291314453 1.2940952255126 0.0
vertex 38.8 8.66025403784438 0.0
vertex 38.8 0.0 0.0
endloop
endfacet
facet normal 0.0 0.0 -1.0
outer loop
vertex 38.8 0.0 0.0
vertex 38.8 8.66025403784438 0.0
vertex 38.8 -8.66025403784439 0.0
endloop
endfacet
facet normal 0.0 0.0 -1.0
outer loop
vertex 38.8 -8.66025403784439 0.0
vertex 38.8 8.66025403784438 0.0
vertex 40.8710678118655 -7.07106781186547 0.0
endloop
endfacet
facet normal 0.0 0.0 -1.0
outer loop
vertex 40.8710678118655 -7.07106781186547 0.0
vertex 38.8 8.66025403784438 0.0
vertex 40.8710678118655 7.07106781186547 0.0
endloop
endfacet
facet normal 0.0 0.0 -1.0
outer loop
vertex 40.8710678118655 -7.07106781186547 0.0
vertex 40.8710678118655 7.07106781186547 0.0
vertex 42.4602540378444 -5.0 0.0
endloop
endfacet
facet normal 0.0 0.0 -1.0
outer loop
vertex 42.4602540378444 -5.0 0.0
vertex 40.8710678118655 7.07106781186547 0.0
vertex 42.4602540378444 5.0 0.0
endloop
endfacet
facet normal 0.0 0.0 -1.0
outer loop
vertex 42.4602540378444 -5.0 0.0
vertex 42.4602540378444 5.0 0.0
vertex 43.4592582628907 -2.58819045102521 0.0
endloop
endfacet
facet normal 0.0 0.0 -1.0
outer loop
vertex 43.4592582628907 -2.58819045102521 0.0
vertex 42.4602540378444 5.0 0.0
vertex 43.4592582628907 2.5881904510252 0.0
endloop
endfacet
facet normal 0.0 0.0 -1.0
outer loop
vertex 43.4592582628907 -2.58819045102521 0.0
vertex 43.4592582628907 2.5881904510252 0.0
vertex 43.8 -1.40998324127395e-015 0.0
endloop
endfacet
facet normal 0.0 0.0 -1.0
outer loop
vertex 28.8 -8.66025403784439 0.0
vertex 28.9703708685547 -1.2940952255126 0.0
vertex 31.2118095489748 -9.65925826289068 0.0
endloop
endfacet
facet normal 0.0 0.0 -1.0
outer loop
vertex 28.9703708685547 -1.2940952255126 0.0
vertex 28.8 -8.66025403784439 0.0
vertex 28.8 0.0 0.0
endloop
endfacet
facet normal 0.0 0.0 -1.0
outer loop
vertex 31.2118095489748 -9.65925826289068 0.0
vertex 28.9703708685547 -1.2940952255126 0.0
vertex 29.4698729810778 -2.5 0.0
endloop
endfacet
facet normal 0.0 0.0 -1.0
outer loop
vertex 31.2118095489748 -9.65925826289068 0.0
vertex 29.4698729810778 -2.5 0.0
vertex 30.2644660940673 -3.53553390593274 0.0
endloop
endfacet
facet normal 0.0 0.0 -1.0
outer loop
vertex 31.2118095489748 -9.65925826289068 0.0
vertex 30.2644660940673 -3.53553390593274 0.0
vertex 31.3 -4.33012701892219 0.0
endloop
endfacet
facet normal 0.0 0.0 -1.0
outer loop
vertex 31.2118095489748 -9.65925826289068 0.0
vertex 31.3 -4.33012701892219 0.0
vertex 33.8 -10.0 0.0
endloop
endfacet
facet normal 0.0 0.0 -1.0
outer loop
vertex 33.8 -10.0 0.0
vertex 31.3 -4.33012701892219 0.0
vertex 32.5059047744874 -4.82962913144534 0.0
endloop
endfacet
facet normal 0.0 0.0 -1.0
outer loop
vertex 33.8 -10.0 0.0
vertex 32.5059047744874 -4.82962913144534 0.0
vertex 33.8 -5.0 0.0
endloop
endfacet
facet normal 0.0 0.0 -1.0
outer loop
vertex 33.8 -10.0 0.0
vertex 33.8 -5.0 0.0
vertex 35.0940952255126 -4.82962913144534 0.0
endloop
endfacet
facet normal 0.0 0.0 -1.0
outer loop
vertex 33.8 -10.0 0.0
vertex 35.0940952255126 -4.82962913144534 0.0
vertex 36.3881904510252 -9.65925826289068 0.0
endloop
endfacet
facet normal 0.0 0.0 -1.0
outer loop
vertex 36.3881904510252 -9.65925826289068 0.0
vertex 35.0940952255126 -4.82962913144534 0.0
vertex 36.3 -4.33012701892219 0.0
endloop
endfacet
facet normal 0.0 0.0 -1.0
outer loop
vertex 36.3881904510252 -9.65925826289068 0.0
vertex 36.3 -4.33012701892219 0.0
vertex 37.3355339059327 -3.53553390593274 0.0
endloop
endfacet
facet normal 0.0 0.0 -1.0
outer loop
vertex 36.3881904510252 -9.65925826289068 0.0
vertex 37.3355339059327 -3.53553390593274 0.0
vertex 38.8 -8.66025403784439 0.0
endloop
endfacet
facet normal 0.0 0.0 -1.0
outer loop
vertex 38.8 -8.66025403784439 0.0
vertex 37.3355339059327 -3.53553390593274 0.0
vertex 38.1301270189222 -2.5 0.0
endloop
endfacet
facet normal 0.0 0.0 -1.0
outer loop
vertex 38.8 -8.66025403784439 0.0
vertex 38.1301270189222 -2.5 0.0
vertex 38.6296291314453 -1.2940952255126 0.0
endloop
endfacet
facet normal 0.0 0.0 -1.0
outer loop
vertex 38.8 -8.66025403784439 0.0
vertex 38.6296291314453 -1.2940952255126 0.0
vertex 38.8 0.0 0.0
endloop
endfacet
facet normal -0.866025403784439 0.5 0.0
outer loop
vertex 38.1301270189222 -2.5 10.0
vertex 37.3355339059327 -3.53553390593274 0.0
vertex 37.3355339059327 -3.53553390593274 10.0
endloop
endfacet
facet normal -0.707106781186547 0.707106781186548 0.0
outer loop
vertex 37.3355339059327 -3.53553390593274 0.0
vertex 38.1301270189222 -2.5 10.0
vertex 38.1301270189222 -2.5 0.0
endloop
endfacet
facet normal -0.5 0.866025403784439 0.0
outer loop
vertex 36.3 -4.33012701892219 10.0
vertex 37.3355339059327 -3.53553390593274 0.0
vertex 36.3 -4.33012701892219 0.0
endloop
endfacet
facet normal -0.707106781186547 0.707106781186548 0.0
outer loop
vertex 37.3355339059327 -3.53553390593274 0.0
vertex 36.3 -4.33012701892219 10.0
vertex 37.3355339059327 -3.53553390593274 10.0
endloop
endfacet
facet normal -0.258819045102521 0.965925826289068 0.0
outer loop
vertex 35.0940952255126 -4.82962913144534 10.0
vertex 36.3 -4.33012701892219 0.0
vertex 35.0940952255126 -4.82962913144534 0.0
endloop
endfacet
facet normal -0.5 0.866025403784439 0.0
outer loop
vertex 36.3 -4.33012701892219 0.0
vertex 35.0940952255126 -4.82962913144534 10.0
vertex 36.3 -4.33012701892219 10.0
endloop
endfacet
facet normal -0.965925826289068 -0.258819045102521 0.0
outer loop
vertex 38.6296291314453 1.2940952255126 10.0
vertex 38.8 0.0 0.0
vertex 38.8 0.0 10.0
endloop
endfacet
facet normal -1.0 -1.24755538539057e-016 0.0
outer loop
vertex 38.8 0.0 0.0
vertex 38.6296291314453 1.2940952255126 10.0
vertex 38.6296291314453 1.2940952255126 0.0
endloop
endfacet
facet normal -1.0 -1.24755538539057e-016 0.0
outer loop
vertex 38.8 0.0 10.0
vertex 38.6296291314453 -1.2940952255126 0.0
vertex 38.6296291314453 -1.2940952255126 10.0
endloop
endfacet
facet normal -0.965925826289068 0.258819045102521 0.0
outer loop
vertex 38.6296291314453 -1.2940952255126 0.0
vertex 38.8 0.0 10.0
vertex 38.8 0.0 0.0
endloop
endfacet
facet normal -0.707106781186548 -0.707106781186547 0.0
outer loop
vertex 37.3355339059327 3.53553390593273 10.0
vertex 36.3 4.33012701892219 0.0
vertex 37.3355339059327 3.53553390593273 0.0
endloop
endfacet
facet normal -0.500000000000001 -0.866025403784438 0.0
outer loop
vertex 36.3 4.33012701892219 0.0
vertex 37.3355339059327 3.53553390593273 10.0
vertex 36.3 4.33012701892219 10.0
endloop
endfacet
facet normal -0.707106781186548 -0.707106781186547 0.0
outer loop
vertex 37.3355339059327 3.53553390593273 10.0
vertex 38.1301270189222 2.5 0.0
vertex 38.1301270189222 2.5 10.0
endloop
endfacet
facet normal -0.866025403784439 -0.5 0.0
outer loop
vertex 38.1301270189222 2.5 0.0
vertex 37.3355339059327 3.53553390593273 10.0
vertex 37.3355339059327 3.53553390593273 0.0
endloop
endfacet
facet normal -0.866025403784439 -0.5 0.0
outer loop
vertex 38.1301270189222 2.5 10.0
vertex 38.6296291314453 1.2940952255126 0.0
vertex 38.6296291314453 1.2940952255126 10.0
endloop
endfacet
facet normal -0.965925826289068 -0.258819045102521 0.0
outer loop
vertex 38.6296291314453 1.2940952255126 0.0
vertex 38.1301270189222 2.5 10.0
vertex 38.1301270189222 2.5 0.0
endloop
endfacet
facet normal 2.67333296869407e-016 1.0 0.0
outer loop
vertex 33.8 -5.0 10.0
vertex 35.0940952255126 -4.82962913144534 0.0
vertex 33.8 -5.0 0.0
endloop
endfacet
facet normal -0.258819045102521 0.965925826289068 0.0
outer loop
vertex 35.0940952255126 -4.82962913144534 0.0
vertex 33.8 -5.0 10.0
vertex 35.0940952255126 -4.82962913144534 10.0
endloop
endfacet
facet normal 0.25881904510252 0.965925826289068 0.0
outer loop
vertex 32.5059047744874 -4.82962913144534 10.0
vertex 33.8 -5.0 0.0
vertex 32.5059047744874 -4.82962913144534 0.0
endloop
endfacet
facet normal 2.67333296869407e-016 1.0 0.0
outer loop
vertex 33.8 -5.0 0.0
vertex 32.5059047744874 -4.82962913144534 10.0
vertex 33.8 -5.0 10.0
endloop
endfacet
facet normal 0.5 0.866025403784439 0.0
outer loop
vertex 31.3 -4.33012701892219 10.0
vertex 32.5059047744874 -4.82962913144534 0.0
vertex 31.3 -4.33012701892219 0.0
endloop
endfacet
facet normal 0.25881904510252 0.965925826289068 0.0
outer loop
vertex 32.5059047744874 -4.82962913144534 0.0
vertex 31.3 -4.33012701892219 10.0
vertex 32.5059047744874 -4.82962913144534 10.0
endloop
endfacet
facet normal 0.707106781186548 0.707106781186547 0.0
outer loop
vertex 30.2644660940673 -3.53553390593274 10.0
vertex 31.3 -4.33012701892219 0.0
vertex 30.2644660940673 -3.53553390593274 0.0
endloop
endfacet
facet normal 0.5 0.866025403784439 0.0
outer loop
vertex 31.3 -4.33012701892219 0.0
vertex 30.2644660940673 -3.53553390593274 10.0
vertex 31.3 -4.33012701892219 10.0
endloop
endfacet
facet normal 0.866025403784439 0.5 0.0
outer loop
vertex 29.4698729810778 -2.5 0.0
vertex 30.2644660940673 -3.53553390593274 10.0
vertex 30.2644660940673 -3.53553390593274 0.0
endloop
endfacet
facet normal 0.707106781186548 0.707106781186547 0.0
outer loop
vertex 30.2644660940673 -3.53553390593274 10.0
vertex 29.4698729810778 -2.5 0.0
vertex 29.4698729810778 -2.5 10.0
endloop
endfacet
facet normal 0.965925826289068 0.258819045102521 0.0
outer loop
vertex 28.9703708685547 -1.2940952255126 0.0
vertex 29.4698729810778 -2.5 10.0
vertex 29.4698729810778 -2.5 0.0
endloop
endfacet
facet normal 0.866025403784439 0.5 0.0
outer loop
vertex 29.4698729810778 -2.5 10.0
vertex 28.9703708685547 -1.2940952255126 0.0
vertex 28.9703708685547 -1.2940952255126 10.0
endloop
endfacet
facet normal 1.0 2.22777747391173e-016 0.0
outer loop
vertex 28.8 0.0 0.0
vertex 28.9703708685547 -1.2940952255126 10.0
vertex 28.9703708685547 -1.2940952255126 0.0
endloop
endfacet
facet normal 0.965925826289068 0.258819045102521 0.0
outer loop
vertex 28.9703708685547 -1.2940952255126 10.0
vertex 28.8 0.0 0.0
vertex 28.8 0.0 10.0
endloop
endfacet
facet normal 0.965925826289068 -0.258819045102521 0.0
outer loop
vertex 28.9703708685547 1.29409522551261 0.0
vertex 28.8 0.0 10.0
vertex 28.8 0.0 0.0
endloop
endfacet
facet normal 1.0 2.22777747391173e-016 0.0
outer loop
vertex 28.8 0.0 10.0
vertex 28.9703708685547 1.29409522551261 0.0
vertex 28.9703708685547 1.29409522551261 10.0
endloop
endfacet
facet normal -0.965925826289068 -0.258819045102521 0.0
outer loop
vertex 24.1407417371093 -2.58819045102521 10.0
vertex 25.1397459621556 -5.0 0.0
vertex 25.1397459621556 -5.0 10.0
endloop
endfacet
facet normal -0.866025403784439 -0.5 0.0
outer loop
vertex 25.1397459621556 -5.0 0.0
vertex 24.1407417371093 -2.58819045102521 10.0
vertex 24.1407417371093 -2.58819045102521 0.0
endloop
endfacet
facet normal -0.866025403784439 -0.5 0.0
outer loop
vertex 25.1397459621556 -5.0 10.0
vertex 26.7289321881345 -7.07106781186547 0.0
vertex 26.7289321881345 -7.07106781186547 10.0
endloop
endfacet
facet normal -0.707106781186548 -0.707106781186547 0.0
outer loop
vertex 26.7289321881345 -7.07106781186547 0.0
vertex 25.1397459621556 -5.0 10.0
vertex 25.1397459621556 -5.0 0.0
endloop
endfacet
facet normal -0.5 -0.866025403784439 0.0
outer loop
vertex 28.8 -8.66025403784439 10.0
vertex 26.7289321881345 -7.07106781186547 0.0
vertex 28.8 -8.66025403784439 0.0
endloop
endfacet
facet normal -0.707106781186548 -0.707106781186547 0.0
outer loop
vertex 26.7289321881345 -7.07106781186547 0.0
vertex 28.8 -8.66025403784439 10.0
vertex 26.7289321881345 -7.07106781186547 10.0
endloop
endfacet
facet normal -0.258819045102521 -0.965925826289068 0.0
outer loop
vertex 31.2118095489748 -9.65925826289068 10.0
vertex 28.8 -8.66025403784439 0.0
vertex 31.2118095489748 -9.65925826289068 0.0
endloop
endfacet
facet normal -0.5 -0.866025403784439 0.0
outer loop
vertex 28.8 -8.66025403784439 0.0
vertex 31.2118095489748 -9.65925826289068 10.0
vertex 28.8 -8.66025403784439 10.0
endloop
endfacet
facet normal 1.51488868225997e-016 -1.0 0.0
outer loop
vertex 33.8 -10.0 10.0
vertex 31.2118095489748 -9.65925826289068 0.0
vertex 33.8 -10.0 0.0
endloop
endfacet
facet normal -0.258819045102521 -0.965925826289068 0.0
outer loop
vertex 31.2118095489748 -9.65925826289068 0.0
vertex 33.8 -10.0 10.0
vertex 31.2118095489748 -9.65925826289068 10.0
endloop
endfacet
facet normal 0.258819045102521 -0.965925826289068 0.0
outer loop
vertex 36.3881904510252 -9.65925826289068 10.0
vertex 33.8 -10.0 0.0
vertex 36.3881904510252 -9.65925826289068 0.0
endloop
endfacet
facet normal 1.51488868225997e-016 -1.0 0.0
outer loop
vertex 33.8 -10.0 0.0
vertex 36.3881904510252 -9.65925826289068 10.0
vertex 33.8 -10.0 10.0
endloop
endfacet
facet normal 0.5 -0.866025403784439 0.0
outer loop
vertex 38.8 -8.66025403784439 10.0
vertex 36.3881904510252 -9.65925826289068 0.0
vertex 38.8 -8.66025403784439 0.0
endloop
endfacet
facet normal 0.258819045102521 -0.965925826289068 0.0
outer loop
vertex 36.3881904510252 -9.65925826289068 0.0
vertex 38.8 -8.66025403784439 10.0
vertex 36.3881904510252 -9.65925826289068 10.0
endloop
endfacet
facet normal 0.707106781186548 -0.707106781186548 0.0
outer loop
vertex 40.8710678118655 -7.07106781186547 10.0
vertex 38.8 -8.66025403784439 0.0
vertex 40.8710678118655 -7.07106781186547 0.0
endloop
endfacet
facet normal 0.5 -0.866025403784439 0.0
outer loop
vertex 38.8 -8.66025403784439 0.0
vertex 40.8710678118655 -7.07106781186547 10.0
vertex 38.8 -8.66025403784439 10.0
endloop
endfacet
facet normal 0.866025403784438 -0.500000000000001 0.0
outer loop
vertex 42.4602540378444 -5.0 0.0
vertex 40.8710678118655 -7.07106781186547 10.0
vertex 40.8710678118655 -7.07106781186547 0.0
endloop
endfacet
facet normal 0.707106781186548 -0.707106781186548 0.0
outer loop
vertex 40.8710678118655 -7.07106781186547 10.0
vertex 42.4602540378444 -5.0 0.0
vertex 42.4602540378444 -5.0 10.0
endloop
endfacet
facet normal 0.965925826289068 -0.258819045102521 0.0
outer loop
vertex 43.4592582628907 -2.58819045102521 0.0
vertex 42.4602540378444 -5.0 10.0
vertex 42.4602540378444 -5.0 0.0
endloop
endfacet
facet normal 0.866025403784438 -0.500000000000001 0.0
outer loop
vertex 42.4602540378444 -5.0 10.0
vertex 43.4592582628907 -2.58819045102521 0.0
vertex 43.4592582628907 -2.58819045102521 10.0
endloop
endfacet
facet normal 1.0 1.06933318747763e-016 0.0
outer loop
vertex 43.8 -1.40998324127395e-015 0.0
vertex 43.4592582628907 -2.58819045102521 10.0
vertex 43.4592582628907 -2.58819045102521 0.0
endloop
endfacet
facet normal 0.965925826289068 -0.258819045102521 0.0
outer loop
vertex 43.4592582628907 -2.58819045102521 10.0
vertex 43.8 -1.40998324127395e-015 0.0
vertex 43.8 -1.40998324127395e-015 10.0
endloop
endfacet
facet normal 0.965925826289068 0.258819045102521 0.0
outer loop
vertex 43.4592582628907 2.5881904510252 0.0
vertex 43.8 -1.40998324127395e-015 10.0
vertex 43.8 -1.40998324127395e-015 0.0
endloop
endfacet
facet normal 1.0 1.06933318747763e-016 0.0
outer loop
vertex 43.8 -1.40998324127395e-015 10.0
vertex 43.4592582628907 2.5881904510252 0.0
vertex 43.4592582628907 2.5881904510252 10.0
endloop
endfacet
facet normal 0.866025403784439 0.5 0.0
outer loop
vertex 42.4602540378444 5.0 0.0
vertex 43.4592582628907 2.5881904510252 10.0
vertex 43.4592582628907 2.5881904510252 0.0
endloop
endfacet
facet normal 0.965925826289068 0.258819045102521 0.0
outer loop
vertex 43.4592582628907 2.5881904510252 10.0
vertex 42.4602540378444 5.0 0.0
vertex 42.4602540378444 5.0 10.0
endloop
endfacet
facet normal 0.707106781186548 0.707106781186547 0.0
outer loop
vertex 40.8710678118655 7.07106781186547 0.0
vertex 42.4602540378444 5.0 10.0
vertex 42.4602540378444 5.0 0.0
endloop
endfacet
facet normal 0.866025403784439 0.5 0.0
outer loop
vertex 42.4602540378444 5.0 10.0
vertex 40.8710678118655 7.07106781186547 0.0
vertex 40.8710678118655 7.07106781186547 10.0
endloop
endfacet
facet normal 0.500000000000001 0.866025403784438 0.0
outer loop
vertex 38.8 8.66025403784438 10.0
vertex 40.8710678118655 7.07106781186547 0.0
vertex 38.8 8.66025403784438 0.0
endloop
endfacet
facet normal 0.707106781186548 0.707106781186547 0.0
outer loop
vertex 40.8710678118655 7.07106781186547 0.0
vertex 38.8 8.66025403784438 10.0
vertex 40.8710678118655 7.07106781186547 10.0
endloop
endfacet
facet normal 0.258819045102522 0.965925826289068 0.0
outer loop
vertex 36.3881904510252 9.65925826289068 10.0
vertex 38.8 8.66025403784438 0.0
vertex 36.3881904510252 9.65925826289068 0.0
endloop
endfacet
facet normal 0.500000000000001 0.866025403784438 0.0
outer loop
vertex 38.8 8.66025403784438 0.0
vertex 36.3881904510252 9.65925826289068 10.0
vertex 38.8 8.66025403784438 10.0
endloop
endfacet
facet normal 1.06933318747763e-016 1.0 0.0
outer loop
vertex 33.8 10.0 10.0
vertex 36.3881904510252 9.65925826289068 0.0
vertex 33.8 10.0 0.0
endloop
endfacet
facet normal 0.258819045102522 0.965925826289068 0.0
outer loop
vertex 36.3881904510252 9.65925826289068 0.0
vertex 33.8 10.0 10.0
vertex 36.3881904510252 9.65925826289068 10.0
endloop
endfacet
facet normal -0.25881904510252 0.965925826289068 0.0
outer loop
vertex 31.2118095489748 9.65925826289068 10.0
vertex 33.8 10.0 0.0
vertex 31.2118095489748 9.65925826289068 0.0
endloop
endfacet
facet normal 1.06933318747763e-016 1.0 0.0
outer loop
vertex 33.8 10.0 0.0
vertex 31.2118095489748 9.65925826289068 10.0
vertex 33.8 10.0 10.0
endloop
endfacet
facet normal -0.5 0.866025403784439 0.0
outer loop
vertex 28.8 8.66025403784439 10.0
vertex 31.2118095489748 9.65925826289068 0.0
vertex 28.8 8.66025403784439 0.0
endloop
endfacet
facet normal -0.25881904510252 0.965925826289068 0.0
outer loop
vertex 31.2118095489748 9.65925826289068 0.0
vertex 28.8 8.66025403784439 10.0
vertex 31.2118095489748 9.65925826289068 10.0
endloop
endfacet
facet normal -0.707106781186547 0.707106781186548 0.0
outer loop
vertex 26.7289321881345 7.07106781186548 10.0
vertex 28.8 8.66025403784439 0.0
vertex 26.7289321881345 7.07106781186548 0.0
endloop
endfacet
facet normal -0.5 0.866025403784439 0.0
outer loop
vertex 28.8 8.66025403784439 0.0
vertex 26.7289321881345 7.07106781186548 10.0
vertex 28.8 8.66025403784439 10.0
endloop
endfacet
facet normal -0.707106781186547 0.707106781186548 0.0
outer loop
vertex 26.7289321881345 7.07106781186548 10.0
vertex 25.1397459621556 5.0 0.0
vertex 25.1397459621556 5.0 10.0
endloop
endfacet
facet normal -0.866025403784438 0.500000000000001 0.0
outer loop
vertex 25.1397459621556 5.0 0.0
vertex 26.7289321881345 7.07106781186548 10.0
vertex 26.7289321881345 7.07106781186548 0.0
endloop
endfacet
facet normal -0.866025403784438 0.500000000000001 0.0
outer loop
vertex 25.1397459621556 5.0 10.0
vertex 24.1407417371093 2.58819045102521 0.0
vertex 24.1407417371093 2.58819045102521 10.0
endloop
endfacet
facet normal -0.965925826289068 0.258819045102522 0.0
outer loop
vertex 24.1407417371093 2.58819045102521 0.0
vertex 25.1397459621556 5.0 10.0
vertex 25.1397459621556 5.0 0.0
endloop
endfacet
facet normal -0.965925826289068 0.258819045102522 0.0
outer loop
vertex 24.1407417371093 2.58819045102521 10.0
vertex 23.8 0.0 0.0
vertex 23.8 0.0 10.0
endloop
endfacet
facet normal -1.0 3.29711066138935e-016 0.0
outer loop
vertex 23.8 0.0 0.0
vertex 24.1407417371093 2.58819045102521 10.0
vertex 24.1407417371093 2.58819045102521 0.0
endloop
endfacet
facet normal -1.0 3.29711066138935e-016 0.0
outer loop
vertex 23.8 0.0 10.0
vertex 24.1407417371093 -2.58819045102521 0.0
vertex 24.1407417371093 -2.58819045102521 10.0
endloop
endfacet
facet normal -0.965925826289068 -0.258819045102521 0.0
outer loop
vertex 24.1407417371093 -2.58819045102521 0.0
vertex 23.8 0.0 10.0
vertex 23.8 0.0 0.0
endloop
endfacet
facet normal 0.0 0.0 1.0
outer loop
vertex 28.8 -8.66025403784439 10.0
vertex 28.9703708685547 -1.2940952255126 10.0
vertex 28.8 0.0 10.0
endloop
endfacet
facet normal 0.0 0.0 1.0
outer loop
vertex 28.9703708685547 -1.2940952255126 10.0
vertex 28.8 -8.66025403784439 10.0
vertex 31.2118095489748 -9.65925826289068 10.0
endloop
endfacet
facet normal 0.0 0.0 1.0
outer loop
vertex 28.9703708685547 -1.2940952255126 10.0
vertex 31.2118095489748 -9.65925826289068 10.0
vertex 29.4698729810778 -2.5 10.0
endloop
endfacet
facet normal 0.0 0.0 1.0
outer loop
vertex 29.4698729810778 -2.5 10.0
vertex 31.2118095489748 -9.65925826289068 10.0
vertex 30.2644660940673 -3.53553390593274 10.0
endloop
endfacet
facet normal 0.0 0.0 1.0
outer loop
vertex 30.2644660940673 -3.53553390593274 10.0
vertex 31.2118095489748 -9.65925826289068 10.0
vertex 31.3 -4.33012701892219 10.0
endloop
endfacet
facet normal 0.0 0.0 1.0
outer loop
vertex 31.3 -4.33012701892219 10.0
vertex 31.2118095489748 -9.65925826289068 10.0
vertex 33.8 -10.0 10.0
endloop
endfacet
facet normal 0.0 0.0 1.0
outer loop
vertex 31.3 -4.33012701892219 10.0
vertex 33.8 -10.0 10.0
vertex 32.5059047744874 -4.82962913144534 10.0
endloop
endfacet
facet normal 0.0 0.0 1.0
outer loop
vertex 32.5059047744874 -4.82962913144534 10.0
vertex 33.8 -10.0 10.0
vertex 33.8 -5.0 10.0
endloop
endfacet
facet normal 0.0 0.0 1.0
outer loop
vertex 33.8 -5.0 10.0
vertex 33.8 -10.0 10.0
vertex 36.3881904510252 -9.65925826289068 10.0
endloop
endfacet
facet normal 0.0 0.0 1.0
outer loop
vertex 33.8 -5.0 10.0
vertex 36.3881904510252 -9.65925826289068 10.0
vertex 35.0940952255126 -4.82962913144534 10.0
endloop
endfacet
facet normal 0.0 0.0 1.0
outer loop
vertex 35.0940952255126 -4.82962913144534 10.0
vertex 36.3881904510252 -9.65925826289068 10.0
vertex 36.3 -4.33012701892219 10.0
endloop
endfacet
facet normal 0.0 0.0 1.0
outer loop
vertex 36.3 -4.33012701892219 10.0
vertex 36.3881904510252 -9.65925826289068 10.0
vertex 37.3355339059327 -3.53553390593274 10.0
endloop
endfacet
facet normal 0.0 0.0 1.0
outer loop
vertex 37.3355339059327 -3.53553390593274 10.0
vertex 36.3881904510252 -9.65925826289068 10.0
vertex 38.8 -8.66025403784439 10.0
endloop
endfacet
facet normal 0.0 0.0 1.0
outer loop
vertex 37.3355339059327 -3.53553390593274 10.0
vertex 38.8 -8.66025403784439 10.0
vertex 38.1301270189222 -2.5 10.0
endloop
endfacet
facet normal 0.0 0.0 1.0
outer loop
vertex 38.1301270189222 -2.5 10.0
vertex 38.8 -8.66025403784439 10.0
vertex 38.6296291314453 -1.2940952255126 10.0
endloop
endfacet
facet normal 0.0 0.0 1.0
outer loop
vertex 38.6296291314453 -1.2940952255126 10.0
vertex 38.8 -8.66025403784439 10.0
vertex 38.8 0.0 10.0
endloop
endfacet
facet normal 0.0 0.0 1.0
outer loop
vertex 38.8 0.0 10.0
vertex 38.8 -8.66025403784439 10.0
vertex 40.8710678118655 -7.07106781186547 10.0
endloop
endfacet
facet normal 0.0 0.0 1.0
outer loop
vertex 38.8 0.0 10.0
vertex 40.8710678118655 -7.07106781186547 10.0
vertex 38.8 8.66025403784438 10.0
endloop
endfacet
facet normal 0.0 0.0 1.0
outer loop
vertex 38.8 8.66025403784438 10.0
vertex 40.8710678118655 -7.07106781186547 10.0
vertex 40.8710678118655 7.07106781186547 10.0
endloop
endfacet
facet normal 0.0 0.0 1.0
outer loop
vertex 40.8710678118655 7.07106781186547 10.0
vertex 40.8710678118655 -7.07106781186547 10.0
vertex 42.4602540378444 -5.0 10.0
endloop
endfacet
facet normal 0.0 0.0 1.0
outer loop
vertex 40.8710678118655 7.07106781186547 10.0
vertex 42.4602540378444 -5.0 10.0
vertex 42.4602540378444 5.0 10.0
endloop
endfacet
facet normal 0.0 0.0 1.0
outer loop
vertex 42.4602540378444 5.0 10.0
vertex 42.4602540378444 -5.0 10.0
vertex 43.4592582628907 -2.58819045102521 10.0
endloop
endfacet
facet normal 0.0 0.0 1.0
outer loop
vertex 42.4602540378444 5.0 10.0
vertex 43.4592582628907 -2.58819045102521 10.0
vertex 43.4592582628907 2.5881904510252 10.0
endloop
endfacet
facet normal 0.0 0.0 1.0
outer loop
vertex 43.4592582628907 2.5881904510252 10.0
vertex 43.4592582628907 -2.58819045102521 10.0
vertex 43.8 -1.40998324127395e-015 10.0
endloop
endfacet
facet normal 0.0 0.0 1.0
outer loop
vertex 24.1407417371093 -2.58819045102521 10.0
vertex 24.1407417371093 2.58819045102521 10.0
vertex 23.8 0.0 10.0
endloop
endfacet
facet normal 0.0 0.0 1.0
outer loop
vertex 24.1407417371093 2.58819045102521 10.0
vertex 24.1407417371093 -2.58819045102521 10.0
vertex 25.1397459621556 -5.0 10.0
endloop
endfacet
facet normal 0.0 0.0 1.0
outer loop
vertex 24.1407417371093 2.58819045102521 10.0
vertex 25.1397459621556 -5.0 10.0
vertex 25.1397459621556 5.0 10.0
endloop
endfacet
facet normal 0.0 0.0 1.0
outer loop
vertex 25.1397459621556 5.0 10.0
vertex 25.1397459621556 -5.0 10.0
vertex 26.7289321881345 -7.07106781186547 10.0
endloop
endfacet
facet normal 0.0 0.0 1.0
outer loop
vertex 25.1397459621556 5.0 10.0
vertex 26.7289321881345 -7.07106781186547 10.0
vertex 26.7289321881345 7.07106781186548 10.0
endloop
endfacet
facet normal 0.0 0.0 1.0
outer loop
vertex 26.7289321881345 7.07106781186548 10.0
vertex 26.7289321881345 -7.07106781186547 10.0
vertex 28.8 -8.66025403784439 10.0
endloop
endfacet
facet normal 0.0 0.0 1.0
outer loop
vertex 26.7289321881345 7.07106781186548 10.0
vertex 28.8 -8.66025403784439 10.0
vertex 28.8 8.66025403784439 10.0
endloop
endfacet
facet normal 0.0 0.0 1.0
outer loop
vertex 28.8 8.66025403784439 10.0
vertex 28.8 -8.66025403784439 10.0
vertex 28.8 0.0 10.0
endloop
endfacet
facet normal 0.0 0.0 1.0
outer loop
vertex 28.8 8.66025403784439 10.0
vertex 28.8 0.0 10.0
vertex 28.9703708685547 1.29409522551261 10.0
endloop
endfacet
facet normal 0.0 0.0 1.0
outer loop
vertex 28.8 8.66025403784439 10.0
vertex 28.9703708685547 1.29409522551261 10.0
vertex 31.2118095489748 9.65925826289068 10.0
endloop
endfacet
facet normal 0.0 0.0 1.0
outer loop
vertex 31.2118095489748 9.65925826289068 10.0
vertex 28.9703708685547 1.29409522551261 10.0
vertex 29.4698729810778 2.5 10.0
endloop
endfacet
facet normal 0.0 0.0 1.0
outer loop
vertex 31.2118095489748 9.65925826289068 10.0
vertex 29.4698729810778 2.5 10.0
vertex 30.2644660940673 3.53553390593274 10.0
endloop
endfacet
facet normal 0.0 0.0 1.0
outer loop
vertex 31.2118095489748 9.65925826289068 10.0
vertex 30.2644660940673 3.53553390593274 10.0
vertex 31.3 4.33012701892219 10.0
endloop
endfacet
facet normal 0.0 0.0 1.0
outer loop
vertex 31.2118095489748 9.65925826289068 10.0
vertex 31.3 4.33012701892219 10.0
vertex 33.8 10.0 10.0
endloop
endfacet
facet normal 0.0 0.0 1.0
outer loop
vertex 33.8 10.0 10.0
vertex 31.3 4.33012701892219 10.0
vertex 32.5059047744874 4.82962913144534 10.0
endloop
endfacet
facet normal 0.0 0.0 1.0
outer loop
vertex 33.8 10.0 10.0
vertex 32.5059047744874 4.82962913144534 10.0
vertex 33.8 5.0 10.0
endloop
endfacet
facet normal 0.0 0.0 1.0
outer loop
vertex 33.8 10.0 10.0
vertex 33.8 5.0 10.0
vertex 35.0940952255126 4.82962913144534 10.0
endloop
endfacet
facet normal 0.0 0.0 1.0
outer loop
vertex 33.8 10.0 10.0
vertex 35.0940952255126 4.82962913144534 10.0
vertex 36.3881904510252 9.65925826289068 10.0
endloop
endfacet
facet normal 0.0 0.0 1.0
outer loop
vertex 36.3881904510252 9.65925826289068 10.0
vertex 35.0940952255126 4.82962913144534 10.0
vertex 36.3 4.33012701892219 10.0
endloop
endfacet
facet normal 0.0 0.0 1.0
outer loop
vertex 36.3881904510252 9.65925826289068 10.0
vertex 36.3 4.33012701892219 10.0
vertex 37.3355339059327 3.53553390593273 10.0
endloop
endfacet
facet normal 0.0 0.0 1.0
outer loop
vertex 36.3881904510252 9.65925826289068 10.0
vertex 37.3355339059327 3.53553390593273 10.0
vertex 38.8 8.66025403784438 10.0
endloop
endfacet
facet normal 0.0 0.0 1.0
outer loop
vertex 38.8 8.66025403784438 10.0
vertex 37.3355339059327 3.53553390593273 10.0
vertex 38.1301270189222 2.5 10.0
endloop
endfacet
facet normal 0.0 0.0 1.0
outer loop
vertex 38.8 8.66025403784438 10.0
vertex 38.1301270189222 2.5 10.0
vertex 38.6296291314453 1.2940952255126 10.0
endloop
endfacet
facet normal 0.0 0.0 1.0
outer loop
vertex 38.8 8.66025403784438 10.0
vertex 38.6296291314453 1.2940952255126 10.0
vertex 38.8 0.0 10.0
endloop
endfacet
facet normal -0.258819045102521 -0.965925826289068 0.0
outer loop
vertex 35.0940952255126 4.82962913144534 10.0
vertex 33.8 5.0 0.0
vertex 35.0940952255126 4.82962913144534 0.0
endloop
endfacet
facet normal -2.49511077078113e-016 -1.0 0.0
outer loop
vertex 33.8 5.0 0.0
vertex 35.0940952255126 4.82962913144534 10.0
vertex 33.8 5.0 10.0
endloop
endfacet
facet normal -2.49511077078113e-016 -1.0 0.0
outer loop
vertex 33.8 5.0 10.0
vertex 32.5059047744874 4.82962913144534 0.0
vertex 33.8 5.0 0.0
endloop
endfacet
facet normal 0.25881904510252 -0.965925826289068 0.0
outer loop
vertex 32.5059047744874 4.82962913144534 0.0
vertex 33.8 5.0 10.0
vertex 32.5059047744874 4.82962913144534 10.0
endloop
endfacet
facet normal 0.25881904510252 -0.965925826289068 0.0
outer loop
vertex 32.5059047744874 4.82962913144534 10.0
vertex 31.3 4.33012701892219 0.0
vertex 32.5059047744874 4.82962913144534 0.0
endloop
endfacet
facet normal 0.5 -0.866025403784439 0.0
outer loop
vertex 31.3 4.33012701892219 0.0
vertex 32.5059047744874 4.82962913144534 10.0
vertex 31.3 4.33012701892219 10.0
endloop
endfacet
facet normal 0.5 -0.866025403784439 0.0
outer loop
vertex 31.3 4.33012701892219 10.0
vertex 30.2644660940673 3.53553390593274 0.0
vertex 31.3 4.33012701892219 0.0
endloop
endfacet
facet normal 0.707106781186547 -0.707106781186548 0.0
outer loop
vertex 30.2644660940673 3.53553390593274 0.0
vertex 31.3 4.33012701892219 10.0
vertex 30.2644660940673 3.53553390593274 10.0
endloop
endfacet
facet normal 0.707106781186547 -0.707106781186548 0.0
outer loop
vertex 30.2644660940673 3.53553390593274 0.0
vertex 29.4698729810778 2.5 10.0
vertex 29.4698729810778 2.5 0.0
endloop
endfacet
facet normal 0.866025403784439 -0.5 0.0
outer loop
vertex 29.4698729810778 2.5 10.0
vertex 30.2644660940673 3.53553390593274 0.0
vertex 30.2644660940673 3.53553390593274 10.0
endloop
endfacet
facet normal 0.866025403784439 -0.5 0.0
outer loop
vertex 29.4698729810778 2.5 0.0
vertex 28.9703708685547 1.29409522551261 10.0
vertex 28.9703708685547 1.29409522551261 0.0
endloop
endfacet
facet normal 0.965925826289068 -0.258819045102521 0.0
outer loop
vertex 28.9703708685547 1.29409522551261 10.0
vertex 29.4698729810778 2.5 0.0
vertex 29.4698729810778 2.5 10.0
endloop
endfacet
endsolid test1
