solid test1
facet normal 0.0 0.0 -1.0
outer loop
vertex 26.1582924227947 -28.0092501246053 0.0
vertex 20.3205700829631 -55.0092501246053 1.76247905159244e-015
vertex 16.1582924227947 -58.0092501246053 0.0
endloop
endfacet
facet normal 0.0 0.0 -1.0
outer loop
vertex 20.3205700829631 -55.0092501246053 1.76247905159244e-015
vertex 26.1582924227947 -28.0092501246053 0.0
vertex 26.1582924227947 -37.4960831051105 1.76247905159244e-015
endloop
endfacet
facet normal 0.0 0.0 -1.0
outer loop
vertex 26.1582924227947 -37.4960831051105 1.76247905159244e-015
vertex 26.1582924227947 -28.0092501246053 0.0
vertex 31.9960147626264 -55.0092501246053 1.76247905159244e-015
endloop
endfacet
facet normal 0.0 0.0 -1.0
outer loop
vertex 31.9960147626264 -55.0092501246053 1.76247905159244e-015
vertex 26.1582924227947 -28.0092501246053 0.0
vertex 36.1582924227947 -58.0092501246053 0.0
endloop
endfacet
facet normal 0.0 0.0 -1.0
outer loop
vertex 20.3205700829631 -55.0092501246053 1.76247905159244e-015
vertex 36.1582924227947 -58.0092501246053 0.0
vertex 16.1582924227947 -58.0092501246053 0.0
endloop
endfacet
facet normal 0.0 0.0 -1.0
outer loop
vertex 36.1582924227947 -58.0092501246053 0.0
vertex 20.3205700829631 -55.0092501246053 1.76247905159244e-015
vertex 31.9960147626264 -55.0092501246053 1.76247905159244e-015
endloop
endfacet
facet normal -0.948683298050514 0.316227766016838 0.0
outer loop
vertex 26.1582924227947 -28.0092501246053 2.0
vertex 16.1582924227947 -58.0092501246053 0.0
vertex 16.1582924227947 -58.0092501246053 2.0
endloop
endfacet
facet normal -0.948683298050514 0.316227766016838 0.0
outer loop
vertex 16.1582924227947 -58.0092501246053 0.0
vertex 26.1582924227947 -28.0092501246053 2.0
vertex 26.1582924227947 -28.0092501246053 0.0
endloop
endfacet
facet normal 0.948683298050514 0.316227766016838 0.0
outer loop
vertex 26.1582924227947 -28.0092501246053 0.0
vertex 36.1582924227947 -58.0092501246053 2.0
vertex 36.1582924227947 -58.0092501246053 0.0
endloop
endfacet
facet normal 0.948683298050514 0.316227766016838 0.0
outer loop
vertex 36.1582924227947 -58.0092501246053 2.0
vertex 26.1582924227947 -28.0092501246053 0.0
vertex 26.1582924227947 -28.0092501246053 2.0
endloop
endfacet
facet normal -0.0 -1.0 -0.0
outer loop
vertex 36.1582924227947 -58.0092501246053 2.0
vertex 16.1582924227947 -58.0092501246053 0.0
vertex 36.1582924227947 -58.0092501246053 0.0
endloop
endfacet
facet normal -0.0 -1.0 -0.0
outer loop
vertex 16.1582924227947 -58.0092501246053 0.0
vertex 36.1582924227947 -58.0092501246053 2.0
vertex 16.1582924227947 -58.0092501246053 2.0
endloop
endfacet
facet normal 0.0 0.0 1.0
outer loop
vertex 36.1582924227947 -58.0092501246053 2.0
vertex 20.3205700829631 -55.0092501246053 2.0
vertex 16.1582924227947 -58.0092501246053 2.0
endloop
endfacet
facet normal 0.0 0.0 1.0
outer loop
vertex 20.3205700829631 -55.0092501246053 2.0
vertex 36.1582924227947 -58.0092501246053 2.0
vertex 31.9960147626264 -55.0092501246053 2.0
endloop
endfacet
facet normal 0.0 0.0 1.0
outer loop
vertex 20.3205700829631 -55.0092501246053 2.0
vertex 26.1582924227947 -28.0092501246053 2.0
vertex 16.1582924227947 -58.0092501246053 2.0
endloop
endfacet
facet normal 0.0 0.0 1.0
outer loop
vertex 26.1582924227947 -28.0092501246053 2.0
vertex 20.3205700829631 -55.0092501246053 2.0
vertex 26.1582924227947 -37.4960831051105 2.0
endloop
endfacet
facet normal 0.0 0.0 1.0
outer loop
vertex 26.1582924227947 -28.0092501246053 2.0
vertex 26.1582924227947 -37.4960831051105 2.0
vertex 31.9960147626264 -55.0092501246053 2.0
endloop
endfacet
facet normal 0.0 0.0 1.0
outer loop
vertex 26.1582924227947 -28.0092501246053 2.0
vertex 31.9960147626264 -55.0092501246053 2.0
vertex 36.1582924227947 -58.0092501246053 2.0
endloop
endfacet
facet normal 0.948683298050514 -0.316227766016838 0.0
outer loop
vertex 26.1582924227947 -37.4960831051105 1.76247905159244e-015
vertex 20.3205700829631 -55.0092501246053 2.0
vertex 20.3205700829631 -55.0092501246053 1.76247905159244e-015
endloop
endfacet
facet normal 0.948683298050514 -0.316227766016838 0.0
outer loop
vertex 20.3205700829631 -55.0092501246053 2.0
vertex 26.1582924227947 -37.4960831051105 1.76247905159244e-015
vertex 26.1582924227947 -37.4960831051105 2.0
endloop
endfacet
facet normal 0.0 1.0 0.0
outer loop
vertex 20.3205700829631 -55.0092501246053 2.0
vertex 31.9960147626264 -55.0092501246053 1.76247905159244e-015
vertex 20.3205700829631 -55.0092501246053 1.76247905159244e-015
endloop
endfacet
facet normal 0.0 1.0 0.0
outer loop
vertex 31.9960147626264 -55.0092501246053 1.76247905159244e-015
vertex 20.3205700829631 -55.0092501246053 2.0
vertex 31.9960147626264 -55.0092501246053 2.0
endloop
endfacet
facet normal -0.948683298050514 -0.316227766016838 -0.0
outer loop
vertex 26.1582924227947 -37.4960831051105 2.0
vertex 31.9960147626264 -55.0092501246053 1.76247905159244e-015
vertex 31.9960147626264 -55.0092501246053 2.0
endloop
endfacet
facet normal -0.948683298050514 -0.316227766016838 -0.0
outer loop
vertex 31.9960147626264 -55.0092501246053 1.76247905159244e-015
vertex 26.1582924227947 -37.4960831051105 2.0
vertex 26.1582924227947 -37.4960831051105 1.76247905159244e-015
endloop
endfacet
endsolid test1
